<svg xmlns="http://www.w3.org/2000/svg" viewBox="0 0 227 70"><path fill="#fff" d="M0 0h227v69.5H0z"/><path d="M73 31.6c1.2-.2 3.8-.9 6.6-1.6l.1.3c-1.2.6-2.9 1.5-5.3 2.6-.1.3-.2.4-.4.5l-.4-.9-.6-.9zm8.1 11.2h-.5c-1.7.8-4.5 1.6-7.1 1.9l-.1-.4c1-.3 2-.6 3-1 1.3-.5 2.6-1.3 3.4-2.1l.9.9c.9.5.9.8.4.7zm-6.7-17c4.9.8 4.2 3.9 2.7 3.1-.5-1-1.8-2.2-2.9-2.9l.2-.2zm12.3 6.9c.2-.2.3-.5.5-.5.3 0 1.5 1 1.5 1.4-.1.1-.4.3-.8.4v2.5c0 2.5.1 3.3.2 4.8-.2.2-.8.6-1.3.6h-.2v-.8h-8.7v.7c0 .1-.6.5-1.1.5-.2 0-.4-.2-.4-.4.1-1 .1-1.6.1-3.1V37c0-1.4-.1-3.1-.3-4.3l1.7.8h8.4l.4-.8zm-.1 1.1h-8.7v1.7h8.7v-1.7zm0 4.1v-1.8h-8.7v1.8h8.7zm-8.8 2.5h8.7v-1.8h-8.7v1.8zM89 27c.2-.2.3-.5.5-.5.3 0 1.4 1.3 1.4 1.6-.1.2-.4.2-.8.2-.5.6-1.6 1.4-2.3 1.8l-.3-.1c.3-.5.8-1.2 1-1.9H85c.7 1.9 2.2 3.3 6.3 4.1v.3c-.6.1-1 .3-1.1 1-3.6-.9-4.9-2.8-5.4-4.9-.8 2.5-2.9 3.6-6.3 4.2l-.1-.3c3.1-.8 4.6-2 5.1-4.3h-2.2c-.8.8-1.7 1.4-2.7 1.9l-.2-.3c.3-.2.5-.4.7-.6 1-1 1.8-2.7 2-3.8 2.3.7 2.3.9 2 1l-.3.1c-.3.4-.5.8-.9 1.2h6.8l.3-.7zm-5.7 14.8c9.4.6 7 3.7 5.5 2.6-1.1-.8-3-1.7-5.5-2.3v-.3zM100.8 32.9c.2-.3.4-.6.5-.6.3 0 1.6 1.1 1.6 1.4 0 .2-.2.3-.5.3h-3.5v1.4c4.7 1.3 3.8 4.5 2.4 3.5-.3-1.1-1.4-2.4-2.4-3.2V39c0 2.5.1 3.4.2 4.9-.2.3-.7.6-1.2.6-.2 0-.4-.2-.4-.4.1-1.7.2-2.6.2-5.1v-2.8c-.9 2-2.2 3.7-3.8 5.1l-.2-.3c1.6-2 2.7-4.6 3.4-7.1H96c-.7 0-1.3.1-1.9.3l-.5-1.1c.9.1 1.8.1 2.8.2h1.4v-3.7c0-1.4-.1-3.1-.3-4.3 2.2.7 2.2.9 1.9 1.1l-.4.2v6.6h1.5l.3-.3zm-6.6-5.6c3.4 2.6 2.1 5.4 1 4.2 0-1.3-.7-3-1.2-4.1l.2-.1zm8.3.9l-.3.1c-.7 1.3-1.4 2.7-2.2 3.8l-.3-.2c.1-.2.1-.3.2-.5.4-1.3.7-3.1.8-4.3l1.2.5c1 .2 1 .4.6.6zm7.7 9.6l.3-.8c.2-.4.3-.8.5-.8.3 0 1.7.9 1.7 1.2 0 .2-.2.4-.4.5l-2.6.6v1.9c0 1.9.1 2.5.1 3.7-.1.3-.7.7-1.2.7-.3 0-.4-.2-.4-.4.1-1.2.1-1.8.2-3.5v-2l-5.8 1.3-.3-.5 6.1-1.4v-8.4c0-1.4-.1-3.1-.3-4.3 2.3.7 2.3.9 1.9 1.1l-.4.2v11l.6-.1zm-7-5.4c4.7.9 3.9 4.1 2.5 3.2-.4-1-1.6-2.3-2.7-3l.2-.2zm.5-4.9c4.5 1.2 3.7 4.2 2.3 3.3-.3-1.1-1.5-2.4-2.5-3.1l.2-.2zM117.2 30.2c-.8 0-1.5.1-2.2.3l-.5-1.1c.9.1 1.8.1 2.8.2h2.9l.4-.6c.2-.3.4-.6.5-.6.3 0 1.5 1.1 1.5 1.4 0 .2-.3.3-.5.3h-4.9zm2.3-3.8c.2-.3.4-.6.5-.6.3 0 1.5 1.1 1.5 1.4 0 .2-.2.3-.5.3h-2c-1.1 0-2.1.1-3.1.3l-.5-1.1c.8.1 1.7.1 2.6.2h1.2l.3-.5zm-2.7 16.9c0 .5 0 .7.1.9-.1.3-.6.5-1.1.5-.2 0-.3-.2-.3-.4.1-.7.1-1.1.1-2.1v-1.3c0-1.3-.1-2.9-.3-4l1.6.7h2.8l.3-.4c.2-.2.3-.4.5-.4.3 0 1.5.9 1.5 1.2-.1.2-.4.3-.8.4v1.7c0 1.7.1 2.2.1 3.2-.1.2-.8.5-1.2.5-.2 0-.3-.2-.3-.4 0-.1 0-.1.1-.3v-.4h-3.1v.6zm3-11.5c.2-.3.4-.5.5-.5.3 0 1.4 1 1.4 1.3 0 .2-.2.3-.5.3h-2.1c-1.1 0-2.1.1-3.1.3l-.5-1.1c.9.1 1.8.1 2.7.2h1.3l.3-.5zm0 2.6c.2-.3.4-.5.5-.5.3 0 1.4 1 1.4 1.3 0 .2-.2.3-.5.3h-2.1c-1.1 0-2.1.1-3.1.3l-.5-1.1c.9.1 1.8.1 2.7.2h1.3l.3-.5zm-3 7.8h3.1v-3.9h-3.1v3.9zm13.5-12.8c.2-.3.4-.6.5-.6.3 0 1.5 1.1 1.5 1.4-.1.2-.3.3-.5.3h-3.7v1.8h2.6l.4-.6c.2-.3.4-.6.6-.6.3 0 1.6 1.2 1.6 1.5-.1.2-.2.3-.5.3h-7.3c-1.1 0-2.1.1-3.1.3l-.5-1.1c.9.1 1.8.1 2.8.2h2.1v-1.8h-1.2c-.7 0-1.4.1-2.1.3l-.5-1c.8.1 1.7.1 2.6.2h1.2v-1.7h-1.4c-.9 0-1.7.1-2.5.3l-.5-1.1c.9.1 1.8.1 2.8.2h1.6c0-.7 0-1.5-.1-2.1 2.2.7 2.2.9 1.8 1.1l-.4.2v.7h2.3l.4-.6c.2-.3.4-.6.5-.6.3 0 1.6 1.1 1.6 1.4-.1.2-.3.3-.5.3h-4.3v1.7h1.8l.4-.4zm-5.4 12.4c0 1.2 0 1.7.1 2.4-.1.3-.6.6-1.2.6-.2 0-.4-.2-.4-.4.1-1.3.1-2 .2-4v-2.2c0-1.4-.1-3.1-.3-4.3l1.6.8h5.1l.3-.4c.2-.2.3-.4.4-.4.3 0 1.6 1 1.6 1.3-.1.2-.5.3-.9.4V43c0 1.1-.2 1.7-1.8 1.9-.1-.4-.1-.8-.4-1-.2-.2-.6-.4-1.3-.5v-.3s1.6.1 1.9.1c.3 0 .4-.1.4-.4v-2.1h-5.4v1.1zm5.4-6.6h-5.4v2h5.4v-2zm-5.4 4.7h5.4v-2.1h-5.4v2.1zM151.6 29.3c.2-.3.4-.6.6-.6.3 0 1.7 1.2 1.7 1.6 0 .2-.2.3-.5.3h-7.7v1.2c.5 1.7 1.1 3.2 1.9 4.4.3-.3.6-.7.9-1.1.9-1.1 1.7-2.6 2.1-3.7 2.1 1.3 2.1 1.5 1.7 1.5h-.4c-.9 1.1-2.5 2.5-4 3.7 1.7 2.4 3.9 3.8 6 4.8v.2c-.5.1-1 .6-1.2 1.2-3.1-2-5.6-4.6-7-9.8v9.6c0 1.2-.3 1.9-2.2 2.1-.1-.5-.2-.8-.5-1-.3-.3-.9-.4-1.9-.6v-.3s2.3.2 2.8.2c.4 0 .5-.1.5-.5v-5.7c-1.5 1.3-3.6 3-6.2 5 0 .3-.1.5-.3.6l-1.3-1.6c1.3-.7 4.6-2.5 7.9-4.5v-5.7h-4.6c-1.1 0-2.1.1-3.1.3l-.5-1.1c.9.1 1.8.1 2.8.2h5.5v-.1c0-1.4-.1-3.1-.3-4.3 2.3.7 2.3.9 2 1.1l-.3.2V30h5.5l.1-.7zm-13 2.6c4.9 2 3.8 5.4 2.3 4.2-.3-1.3-1.5-3-2.5-4.1l.2-.1zm8.7-5.7c4.4.8 3.7 3.9 2.3 3-.3-1-1.5-2.2-2.4-2.9l.1-.1z"/></svg>