<svg xmlns="http://www.w3.org/2000/svg" viewBox="0 0 227 70"><path fill="#fff" d="M0 0h227v69.5H0z"/><path d="M67.5 35.8c.3.6.3 2.6-1.6 4.2-1.7 1.4-3.4 2.1-4.5 1.4-.7-.4-1.2-1.8.4-4.1 0 0 .3-.3.4-.2 0 .1-.1.4-.2.6-.1.1-1 2.3 0 2.8.3.1 1.6-.1 2.8-1.1 1.1-1 2.5-2.7 1.4-3.8-1.1-1.1-3.3-.2-4.9.5-.7.3-1.5.7-2.3 1.2 0 .8.1 1.6.1 2.1.1.8-.1 2.1-.3 2.4-.1.3-.6.6-.7.6-.1 0-.3 0-.5-.4s-.5-.9-.8-1.3c-.3-.4-1.3-.8-1.3-.8-.7.4-.9.7-1.2.7-1 0-1.8-1.8-.7-2.1.1 0 .5.1.8.3.9-.2 2.3-1 3.6-1.7v-3.5c-.8.3-1.5.5-1.8.6-.4.1-1.2 0-1.6-.3-.5-.4-1-.8-1.1-.9-.1-.1-.2-.2-.1-.3.1-.1.5.1.7.2.3.1 1.1.3 1.8.2.4 0 1.3-.3 2-.5V32c0-.6 0-1.6-.2-2.2-.3-.7-1-.8-1.4-1-.1-.1-.3-.1-.3-.2s.2-.2.4-.3c.8-.3 1.8.1 2.2.4.5.4.4 1.2.3 1.4v.4c.1.2.3.4.5.5.4.3.7.5 1 .5.3 0 .8.1.8.5s-.1.5-.5.6c-.1.1-1 .4-1.9.7v3.3c.7-.4 1.3-.7 1.9-.9 1.3-.7 5.4-2.7 6.8.1zm-9.6 2.1c-.7.5-1.4 1-2.2 1.5.7.4 1.6.8 1.7.9.3.1.3 0 .4-.3 0-.1 0-1 .1-2.1zm.9-6c.2-.1.3-.1.4-.2.2-.2.3-.3 0-.6-.1-.1-.2-.3-.3-.4l-.1.9v.3zM70 33.4c-.4.3-.9.1-1.1-.1-.5-.6-1-1.1-1.8-1.3-.8-.2-1.6.6-1.6.7h-.2c-.1 0 0-.2.1-.3.7-.8 1.2-1.3 2.4-1.4 1.2-.1 2 .7 2.3 1 .2.4.2 1.2-.1 1.4zM79.5 26.4c.2-.2.3-.5.5-.5.3 0 1.4 1 1.4 1.3-.1.1-.4.3-.8.4v1.9c0 1.9.1 2.6.1 3.8-.2.2-.8.5-1.2.5-.2 0-.3-.2-.3-.4 0-.1 0-.1.1-.3v-.4H75v6.4c0 2.5.1 3.4.2 4.9-.2.3-.6.7-1.2.7-.3 0-.5-.2-.5-.4.1-1.8.2-2.7.2-5.5v-8.5c0-1.4-.1-3.1-.3-4.3l1.6.8h4l.5-.4zm-.1 1.1h-4.3v2h4.3v-2zm-4.2 4.7h4.3v-2.1h-4.3v2.1zm4.3 9c0 .4 0 .5.1.7-.1.2-.6.5-1.2.5-.2 0-.3-.2-.3-.4.1-.7.1-1 .1-2v-1.2c0-1.2-.1-2.8-.2-3.8l1.6.7h4.6l.3-.4c.2-.2.3-.4.4-.4.3 0 1.4.9 1.4 1.2-.1.1-.4.3-.7.4v1.7c0 1.7.1 2.3.1 3.3-.1.2-.8.6-1.2.6-.2 0-.3-.2-.3-.4 0-.1 0-.2.1-.4v-.4h-4.8v.3zm0-1h4.8v-3.9h-4.8v3.9zm4.9-6.9c0 .1-.5.4-1.1.4-.2 0-.3-.2-.3-.4.1-.7.1-1 .1-2.1V30c0-1.3-.1-2.8-.3-3.9l1.6.7h4.1l.3-.4c.2-.2.3-.4.5-.4.3 0 1.6 1 1.6 1.3-.1.2-.5.4-.9.4v15c0 1.1-.2 1.7-2.1 1.9-.1-.4-.2-.7-.4-.9-.3-.2-.8-.4-1.7-.5v-.3s2 .1 2.4.1.5-.1.5-.5v-9.8h-4.4v.6zm4.4-5.8h-4.4v2h4.4v-2zm-4.4 4.7h4.4v-2.1h-4.4v2.1zM95.7 29.7c.1-.2 1.2.1 1.7.6.4.4.6.7.5 1.2 0 .9-.9 3.1-.6 5 .3 2 1.4 2.9 1.7 3.1.3.2.5.3.7.3.1 0 .2 0 .3-.4.3-1.3.6-2.2.7-2.5.1-.2.2-.4.3-.4s0 .3 0 .5c-.3 1.4-.2 2.5-.1 2.9s.4 1 .4 1.2c0 .2 0 .5-.3.7-.3.2-1.3 0-2.8-1.3-.5-.5-1.8-2-2-4.1-.2-2.2.2-3.8.3-4.4 0-.5.1-.9 0-1.3s-.4-.7-.7-1c-.1 0-.2 0-.1-.1zm9.5 2.5c0-.1 0-.1.2-.2.1 0 2-.7 3.7.9.8.8 1.3 1.8 1.3 2.4 0 .5-.2 1.3-1 1.1-.4-.1-.5-.4-.5-.6-.1-.2-.8-2.6-1.9-3.2-.7-.3-1.4-.3-1.6-.3-.1 0-.2 0-.2-.1zM114.8 34.9l-.1-.3c2.3-1.3 4.9-3.7 6.7-5.9.8-1.1 1.5-2.3 1.7-3.5l2.6.8c-.1.3-.3.3-.8.4 1.8 2.6 5.1 4.9 8.7 6.4v.3c-.6.1-1 .6-1.2 1.1-3.3-1.7-6.4-4.5-7.8-7.5-2.1 3-6 6.4-9.8 8.2zm4.8 8.6c0 .4 0 .5.1.6-.1.3-.7.6-1.2.6-.2 0-.4-.2-.4-.4.1-.8.1-1.2.1-2.4v-1.4c0-1.4-.1-3.1-.3-4.3l1.8.8h8.5l.3-.4c.2-.2.3-.4.5-.4.3 0 1.6 1 1.6 1.3-.1.2-.5.3-.8.4V40c0 2.1.1 2.8.1 4.1-.2.3-.9.5-1.3.5-.2 0-.3-.2-.3-.4 0-.1 0-.2.1-.5v-.5h-8.8v.3zm2.8-9.8c-1 0-1.8.1-2.8.3l-.5-1.1c.9.1 1.8.1 2.8.2h4.4l.4-.6c.2-.3.4-.6.6-.6.3 0 1.7 1.2 1.7 1.5-.1.2-.3.3-.5.3h-6.1zm-2.8 8.9h8.8v-5h-8.8v5zM144.1 43.5c0-.1.1-.2.3-.2 2.6-.7 4.4-2.3 5.1-3.2 1.2-1.4 2.5-4.6 0-6.4-2-1.5-5.7-.3-7.8 2.2-.1 3.6.2 4.9.3 5.8.2 1.2-.1 1.6-.5 1.7-.4 0-.8-.3-.9-.9-.1-1-.5-2.4-.9-3.7-.5.8-.8 1.5-1 1.7-.4.7-.8.8-1 .7-.2-.1-.4-.3-.4-.8.1-.6 1.1-1.8 2-2.8-.3-.8-.5-1.5-.9-2.2-.1-.2-.3-.5-.4-.7-.1-.2-.5-.6-.4-.8.1-.2.4-.2.7-.2.5 0 1.1-.1 1.6-.3.4-.2.9-.6 1.3-.9.1-.9.1-1.4.2-2 .1-.8.2-1.2.2-1.7s-.1-1.2-.6-1.7c-.2-.2-.4-.3-.3-.4.1-.1.6 0 1 .2.6.3 1.2.8 1.2 1.4 0 .6-.3 1.1-.6 2-.1.4-.2.9-.3 1.4l.1-.1c.4-.3.6-.1 1 .1.4.3.1 1.1-.3 1.6-.1.2-.7 1-.7 1.1 0 .1 0 .1.1.1 4.3-3.3 7.5-1.8 8.4-1 1.9 1.6 2.3 4.6.1 7-1.9 2.2-5.4 3.1-6.5 3.2.1-.1-.1-.1-.1-.2zm-4.4-6.3c.1-.2.3-.3.4-.4.4-.6.8-1.2 1.1-1.9 0-.5.1-1.1.1-1.6-.8.7-.8 1-1.5 1.2-.3.1-.8.1-1.1 0 .1.6.5 1.7 1 2.7zm1.3-.4c-.3.5-.7.9-.9 1.4.3.6.5 1.1.7 1.4.1.3.2 0 .1-.3 0-.1 0-1.1.1-2.5zM174.7 32.6c-.1.4-.3.7-.9.6-.5-.1-1.5-.2-2.5-.2h-2.1c-.1 1.2-.2 2.5-.5 3.4-.3 1.1-.8 2.1-1.7 2.1-.5 0-.5-.3-.5-.4-.1-.9-1.2-2.1-1.3-2.1-.1-.1-.2-.1-.1-.3s.2 0 .4 0c.1.1 1 .6 1.3.8.3.1.5 0 .6 0 .6-.6.8-2 .9-3.4-1.4.1-3.1.5-5.5 1.5 0 1.9.1 4.2.4 5.5.2.8.6 1.2 1.3 1.3.7.1 3.3 0 4.7-.3.6-.2 1.4-.1 1.5.6.1.7-.8.8-1.3.9-.5.1-5.6.8-6.8-1-.7-1-.9-5.6-.9-6.5V35c-.1 0-.1 0-.2.1-1.3.5-1.9 1-2.5 1.1-.9.1-1.5-.3-1.8-.9-.3-.5-.2-1-.1-1.2.1-.2.3 0 .4.2.1.1.6.5 1.4.4.3 0 1.4-.4 2.9-.8-.1-1.3-.2-3-.4-3.2-.6-.8-1.2-.7-1.2-.8 0-.3.1-.4.4-.4.3-.1 1.4-.3 2.2.5.2.2.3.8.2 1v2.7c1.7-.5 3.7-1 5.5-1.2 0-1.4 0-2.7-.1-3-.1-.8-.8-1.1-.9-1.2s-.3-.2-.1-.3c.1-.1.3-.2.5-.2.4 0 1.1.1 1.5.4.3.3.6.6.5 1.1-.1.3-.1.6-.2 1.1v.1c.8.4 2.7 1.5 3.7 1.6.4 0 .8-.1 1 0 0-.1.4.1.3.5zm-4.7-1.5c-.1 0-.3-.2-.6-.4 0 .4 0 .9-.1 1.5h.6c.2 0 1 0 1-.2.2-.2-.6-.7-.9-.9z"/></svg>