<svg xmlns="http://www.w3.org/2000/svg" viewBox="0 0 227 70"><path fill="#fff" d="M0 0h227v69.5H0z"/><path d="M86.7 26.2c.2-.3.3-.5.5-.5.3 0 1.6 1.1 1.6 1.4-.1.2-.5.3-.9.4v5.7c0 2.5.1 3.4.2 4.9-.2.2-.8.6-1.3.6-.2 0-.3-.2-.3-.4 0-.1 0-.1.1-.3v-.4h-2v4.9c0 .3.1.4.8.4h3.9c.3 0 .3-.1.4-.3.2-.4.4-1.6.6-2.9h.3v3c.5.1.5.3.5.6 0 .6-.6.9-3.8.9h-2.2c-1.6 0-1.9-.3-1.9-1.4v-5.2H81c-.6 4.2-2.9 6.1-8.1 7l-.1-.3c4.4-1.3 6.2-3.1 6.7-6.7h-1.8v.8c0 .1-.5.5-1.1.5-.2 0-.4-.2-.4-.4.1-1.8.2-2.7.2-5.4v-2.9c0-1.4-.1-3.1-.3-4.3l1.7.8h8.6l.3-.5zm-.1 1.2h-8.9v2.8h8.9v-2.8zm0 6.2v-2.8h-8.9v2.8h8.9zm-9 .6v2.9h8.9v-2.9h-8.9zM106.6 32.4c.2-.3.4-.5.6-.5.3 0 1.4 1.3 1.4 1.6-.2.1-.4.2-.9.2-.8.7-2.2 1.4-3.4 2h.1c0 .3-.2.5-.7.5v1.5h5.6l.5-.7c.3-.3.5-.7.6-.7.3 0 1.8 1.3 1.8 1.6-.1.2-.3.3-.5.3h-7.9v4.3c0 1.2-.3 1.9-2.4 2.1-.1-.4-.2-.8-.6-1s-1-.4-2.1-.6v-.3s2.7.2 3.2.2c.4 0 .5-.1.5-.5v-4.2h-5c-1.1 0-2.1.1-3.1.3l-.5-1.1c.9.1 1.8.1 2.8.2h5.9c0-.8 0-1.7-.1-2.3l1.3.2c.8-.6 1.7-1.5 2.4-2.2H101c-1.1 0-2.1.1-3.1.3l-.6-1.1c.9.1 1.8.1 2.8.2h6.3l.2-.3zm3.6-2.9c.2-.3.4-.5.6-.5.3 0 1.6 1.3 1.6 1.6-.1.2-.4.2-.8.2-.7.8-1.9 1.8-2.8 2.4l-.2-.2c.4-.7.9-1.7 1.2-2.5H96.5c0 1.4-.5 2.4-1.1 2.9-.5.4-1.2.5-1.5 0-.2-.5.1-.9.5-1.2.9-.5 1.6-2.1 1.4-3.7h.4c.1.5.3 1 .3 1.4h9c.1-.2.3-.5.5-.7.7-1.2 1.5-2.8 1.8-3.9 2.3.9 2.3 1.1 1.9 1.2l-.4.1c-.7 1-1.9 2.3-3.1 3.3h3.7l.3-.4zm-13.1-3.6c4.1 1.6 3 4.6 1.7 3.6-.2-1.1-1.1-2.6-1.9-3.4l.2-.2zm4.5-.4c4 1.9 2.6 5 1.3 3.8 0-1.2-.8-2.7-1.5-3.6l.2-.2zM129 26.5c.3-.3.4-.5.6-.5.3 0 1.5 1.4 1.5 1.7-.2.1-.4.2-.9.2-1.3.9-3.8 2.1-5.7 2.9 1.7 1.1 1.9 2.3 1.4 2.7h4.9l.4-.5c.2-.2.4-.5.6-.5.3 0 1.5 1.3 1.5 1.6-.1.1-.4.2-.8.2-1.1 1.4-3.2 3.2-4.8 4.3l-.2-.2c1-1.1 2.4-3 3.3-4.4h-6.1v8.5c0 1.1-.3 1.9-2.5 2.1 0-.4-.2-.8-.5-1-.4-.3-1.1-.4-2.3-.6v-.3s2.8.2 3.4.2c.4 0 .6-.1.6-.5v-8.5h-5.1c-1.1 0-2.1.1-3.1.3l-.5-1.1c.9.1 1.8.1 2.8.2h7.9c-.7-1.1-2.5-2.8-5-3.9l.1-.3c1.7.3 2.9.8 3.9 1.3 1.3-.8 2.9-1.9 4-2.9h-7.6c-1.1 0-2.1.1-3.1.3l-.5-1.1c.9.1 1.8.1 2.8.2h8.9l.1-.4zM138.6 37.8l-.4.2c-.5 1.8-1.3 3.7-2.3 5l-.3-.2c.2-.4.4-.9.5-1.5.4-1.3.8-3.3.7-4.5l1.2.4c1 .2 1 .4.6.6zm3.5-3.7c-.3-.6-.7-1.2-1-1.6l.2-.1c3.9 2.1 2.8 4.8 1.5 3.8-.1-.5-.3-1-.5-1.6-.5.1-1.1.3-1.7.4v4.3c0 2.5.1 3.4.2 4.9-.2.2-.6.6-1.2.6-.2 0-.4-.2-.4-.4.1-1.8.2-2.7.2-5.5v-3.7c-.8.2-1.6.3-2.6.5-.1.3-.3.4-.5.4l-.4-1.6c.5 0 1.2 0 2.2-.1.5-.8 1.1-1.8 1.6-2.8.7-1.2 1.3-2.8 1.6-3.9 2.1.9 2.1 1.1 1.7 1.2l-.4.1c-.9 1.6-2.5 3.7-3.9 5.3.9 0 2.1-.1 3.4-.2zm-4.3-4.6c.6-1.3 1.1-3 1.2-4.1 2.2.8 2.2 1 1.8 1.2l-.4.1c-.7 1.1-1.5 2.3-2.2 3.2 1.6 1.3.9 2.8-.1 2.1-.3-1-1.3-2.2-2.1-2.9l.2-.2c.6.1 1.1.4 1.6.6-.1 0 0 0 0 0zm3.8 7.5c3.5 2.5 2.3 5.3 1.1 4.1-.1-1.3-.8-2.9-1.4-4l.3-.1zm10.2-7l.3-.5c.2-.2.3-.5.5-.5.3 0 1.5 1 1.5 1.4-.1.2-.4.3-.8.3-.2 6.6-.6 11.7-1.6 12.9-.6.7-1.4 1-2.5 1 0-.4-.1-.8-.4-1-.4-.3-1.4-.5-2.4-.7v-.4c1.1.1 2.9.3 3.4.3s.6-.1.9-.3c.8-.8 1.2-5.8 1.3-12h-6.1c-.6 1.3-1.4 2.5-2.1 3.4l-.3-.2c.5-1 1.1-2.3 1.6-3.8.4-1.3.8-3.4.9-4.5 2.3.7 2.3.9 1.9 1l-.4.1c-.4 1.2-.8 2.3-1.2 3.3h5.5zm-5.8 3.4c4.6 2.4 3.3 5.8 1.9 4.6-.1-1.5-1.2-3.3-2.1-4.5l.2-.1z"/></svg>