<svg version="1.1" id="レイヤー_1" xmlns="http://www.w3.org/2000/svg" x="0" y="0" viewBox="0 0 169 77" xml:space="preserve"><style>.st0{fill:#fff}</style><path class="st0" d="M43.3 3.7c-.8.3-1.9.5-3.1.6v3.1c1.2-.4 2.6-.7 3.6-.7 2.7 0 4.4 1.5 4.4 3.7 0 2.1-1.3 3.8-3.8 3.8-1.2 0-2.3-.4-3.1-1.5.2-.2.4-.6.6-.8.8 1 1.6 1.3 2.6 1.3 1.7 0 2.6-1.2 2.6-2.7 0-1.6-1.1-2.8-3.3-2.8-1 0-2.4.3-3.6.8V12c0 1.4-.9 2.5-2.5 2.5-1.5 0-2.7-.9-2.7-2.5 0-1 .7-2.2 2-3.1.6-.4 1.3-.8 2.1-1.2V4.4c-1.3.1-2.6.1-3.8.1V3.4c1.4 0 2.7 0 3.9-.1v-3l1.6.1c0 .2-.2.3-.4.3 0 .6 0 1.6-.1 2.5 1.1-.1 2-.4 2.9-.7l.1 1.2zm-4.1 8.2v-3c-.6.3-1.2.6-1.6.9-.8.6-1.5 1.5-1.5 2.2 0 .8.5 1.5 1.6 1.5.8 0 1.5-.6 1.5-1.6zm9-6.3c-.8-.8-2.4-1.7-3.6-2.3l.6-.9c1.3.6 2.8 1.5 3.7 2.3l-.7.9zM58.3 6.4h-4.7v8.5h-1.1V.7h5.8v5.7zm-1-4.8h-3.7v1.5h3.7V1.6zm-3.8 3.9h3.7V3.9h-3.7v1.6zm8.5 7.1h-5v1h-1V7.9h6v4.7zm-1-3.8h-4v2.8h4V8.8zM65.7.7v12.7c0 .8-.2 1.1-.7 1.3-.5.2-1.5.2-2.9.2 0-.3-.2-.8-.4-1.1h1.5c1.2 0 1.3 0 1.3-.4v-7h-4.9V.7h6.1zm-1 .9h-3.8v1.5h3.8V1.6zm-3.9 3.9h3.8V3.9h-3.8v1.6zM71.6 2.2c0 .1-.2.2-.4.3-.2 1.2-.3 2.6-.3 4 0 .6 0 1.2.1 1.7.2 2.7 1.3 4.4 2.5 4.4.6 0 1.5-1.6 2-3.4.2.2.7.5.9.7-.7 2.2-1.7 3.9-3 4-2 0-3.4-2.4-3.7-5.5 0-.6-.1-1.3-.1-2 0-1.4.1-2.9.2-4.3l1.8.1zm10.7 7.4c-.4-2.8-1.9-4.8-4-6l.7-.9c2.3 1.2 4 3.6 4.5 6.5l-1.2.4zM94.6.1c0 .1-.2.2-.3.2 1.6 2.1 4.5 4.4 7 5.6-.3.2-.5.6-.7.9-2.5-1.3-5.4-3.6-7-5.7-1.3 2-4 4.3-6.8 5.9-.1-.2-.4-.6-.7-.8C89 4.7 91.7 2.1 93 0l1.6.1zm-5.9 14.8V8.4h9.9v6.5h-1.1v-.7h-7.7v.7h-1.1zm.8-9.6h8.2v1h-8.2v-1zm8 4.1h-7.7v3.8h7.7V9.4zM107.3.4l1.6.2c0 .2-.2.3-.5.3-.1.8-.1 1.6-.1 2.3.1 0 .3.1.6.2-.2.4-.5 1.2-.7 1.9V6c1.7-1.3 3.5-1.9 5.2-1.9 2.8 0 4.3 1.9 4.3 4.6 0 3.4-2.6 4.9-7 5.3-.1-.3-.2-.7-.4-1 4-.4 6.2-1.5 6.2-4.2 0-2-1-3.6-3.2-3.6-1.7 0-3.4.7-5.2 2.1v7.2H107V7.8c-.5 1-1.8 2.6-3 3.7l-.6-.9c1.3-1.1 2.9-3 3.6-4.8V4.5c-.6.1-1.9.2-3.2.3V3.7c1.1 0 2.4-.1 3.2-.2l.3-3.1zM131.9.6c0 .2-.1.2-.4.3.1 1.1.1 2.4.1 3.6 1.3-.2 2.5-.4 3.4-.5l.1 1.1c-1 .1-2.2.3-3.5.5 0 1.5 0 2.8-.2 3.6-.2.9-.9 1.5-1.8 1.5-.7 0-1.6-.2-2.5-.7.1-.2.1-.6.2-.9.9.5 1.7.6 2.1.6 1 0 1.1-.9 1-3.9-1.8.3-3.8.6-5.2.9 0 1.5.1 3 .1 3.9.2 2.4 1.4 2.6 3.7 2.6 1.3 0 3-.1 4.2-.2v1.1c-1.1.1-2.8.2-4.1.2-2.5 0-4.7-.1-4.9-3.5-.1-.9-.1-2.3-.1-3.8-1 .2-2.3.4-3.1.6l-.2-1.1c.8-.1 2.2-.4 3.3-.5V1.9l1.6.1c0 .2-.1.3-.4.3v3.5l5.2-.9c0-1.4-.1-2.9-.2-4.2l1.6-.1z"/><g><path class="st0" d="M24.7 68c-1.2 5-5 8.7-11.6 8.7C4.4 76.7 0 70.2 0 62c0-7.9 4.4-15 13.3-15 7 0 10.7 4 11.5 8.9h-4.3c-1-3-2.9-5.3-7.4-5.3-6.2 0-8.6 5.6-8.6 11.3 0 5.5 2.3 11.3 8.8 11.3 4.4 0 6.2-2.6 7.2-5.2h4.2zM52.2 65.7c0 6.2-3.5 11.1-10.1 11.1-6.2 0-9.9-4.7-9.9-11.1 0-6.3 3.7-11.1 10.1-11.1 6.1 0 9.9 4.5 9.9 11.1zm-15.7 0c0 4.5 2.2 7.7 5.8 7.7 3.7 0 5.7-3 5.7-7.7S45.9 58 42.2 58c-3.7 0-5.7 3-5.7 7.7zM61 60.5v-5.3h4c.1.6.2 2.7.2 3.3.8-1.7 2.5-3.8 6.5-3.8s7.1 2.5 7.1 8.1v13.6h-4.1V63.2c0-3-1.2-5.1-4.3-5.1-3.7 0-5.2 2.7-5.2 6.9v11.3H61V60.5zM86.4 55.1H90V49h4v6.2h4.6v3.2H94v12c0 2 .5 3 2.4 3 .5 0 1.2 0 1.7-.2v3c-1 .3-2.2.4-3.3.4-3.5 0-4.9-1.8-4.9-5.4V58.4h-3.6v-3.3zM122.8 71.5c0 2 .2 4.2.3 4.8h-3.9c-.2-.5-.3-1.5-.4-2.6-.7 1.4-2.4 3.1-6.4 3.1-5 0-7.2-3.3-7.2-6.5 0-4.7 3.7-6.9 10-6.9h3.5v-1.7c0-1.8-.6-3.9-4.3-3.9-3.4 0-4 1.6-4.3 3.2h-4c.3-3.1 2.2-6.4 8.4-6.4 5.3 0 8.2 2.2 8.2 7v9.9zm-4-5.4h-3.2c-4.1 0-6.2 1.2-6.2 4 0 2.1 1.4 3.6 3.9 3.6 4.8 0 5.5-3.3 5.5-6.9v-.7zM150.1 69.8c-.9 3.6-3.3 7-8.9 7-5.9 0-9.5-4.3-9.5-11 0-6 3.5-11.2 9.8-11.2 6.3 0 8.4 4.5 8.6 7.2h-4c-.5-2.1-1.7-3.8-4.7-3.8-3.5 0-5.5 3-5.5 7.7s2 7.8 5.4 7.8c2.5 0 4-1.4 4.8-3.7h4zM155.9 55.1h3.6V49h4.1v6.2h4.6v3.2h-4.6v12c0 2 .5 3 2.4 3 .5 0 1.2 0 1.7-.2v3c-1 .3-2.2.4-3.3.4-3.5 0-4.9-1.8-4.9-5.4V58.4h-3.6v-3.3z"/></g></svg>