<?xml version="1.0" encoding="utf-8"?>
<!-- Generator: Adobe Illustrator 26.5.0, SVG Export Plug-In . SVG Version: 6.00 Build 0)  -->
<svg version="1.1" id="レイヤー_1" xmlns="http://www.w3.org/2000/svg" xmlns:xlink="http://www.w3.org/1999/xlink" x="0px"
	 y="0px" viewBox="0 0 798 278" style="enable-background:new 0 0 798 278;" xml:space="preserve">
<style type="text/css">
	.st0{fill:none;stroke:#000000;stroke-width:0.5668;stroke-miterlimit:10;}
</style>
<g>
	<g>
		<path d="M9.1,267.8c-0.5,1-0.9,1.9-1.3,2.7c-0.5,0.3-1.5,0.3-2.4-0.2c1.4-2.4,3.3-6.7,5-10.7h-4c-1.9,0-3.6,0.2-5.4,0.5l-1-1.9
			c1.6,0.2,3.2,0.3,4.8,0.3h6c0.9-2.2,1.8-5,2-6.9c3.7,0.8,3.7,1.2,3.1,1.5l-0.7,0.3c-0.5,1.3-1.2,3.1-2,5.1h13.6l0.8-1.1
			c0.4-0.5,0.8-1.1,1-1.1c0.4,0,3,2.2,3,2.7c0,0.4-0.4,0.6-0.9,0.6H24c-0.9,4.1-2.3,7.5-4.4,10c11.5,3.9,10.6,8.9,7.9,7.7
			c-1.8-1.8-5.1-4.1-9.4-6.1c-3.7,3.4-9.3,5.4-18,6.3L0,276.7c7.5-1.3,12.6-3.2,16.1-6.5C13.9,269.3,11.6,268.5,9.1,267.8z
			 M5.1,250.8c0,2.3-0.9,3.8-1.8,4.5c-0.9,0.6-2.1,0.7-2.6-0.1c-0.3-0.8,0.1-1.6,0.9-2c1.4-0.8,2.6-3,2.4-5.4l0.6,0
			c0.2,0.7,0.4,1.4,0.5,2h9.6c0-1.8-0.1-4-0.3-5.5c3.9,1.1,3.9,1.5,3.3,1.9l-0.6,0.4v3.2h10.5l0.6-0.8c0.4-0.4,0.6-0.8,0.9-0.8
			c0.4,0,2.6,2.1,2.6,2.7c-0.2,0.3-0.6,0.3-1.3,0.4c-1,1.3-2.7,3-4,4L26,255c0.5-1.1,1.2-2.8,1.7-4.2H5.1z M12.8,259.5
			c-1.1,2.5-2.3,5.2-3.4,7.6c3.1,0.5,5.7,1.1,7.9,1.7c2-2.4,3.3-5.5,4.1-9.3H12.8z"/>
		<path d="M41,256.4c1.4,6.3-0.5,10.4-2,12.1c-1,1.1-2.4,1.6-3,0.9c-0.5-0.6-0.1-1.5,0.5-2.2c2.1-1.7,4-5.9,3.9-10.8H41z
			 M45.4,259.9c0-2.4-0.1-5.4-0.5-7.4c3.9,1.1,3.9,1.5,3.3,1.9l-0.6,0.4v18.1c0,0.8,0.3,1.1,2.1,1.1h4.5c2.1,0,3.6,0,4.3-0.1
			c0.5-0.1,0.7-0.3,0.8-0.6c0.3-0.7,0.8-3.3,1.3-6.3h0.4l0.1,6.6c0.8,0.3,1.1,0.6,1.1,1.1c0,1.3-1.3,1.7-8.1,1.7h-4.8
			c-3.2,0-4.1-0.6-4.1-2.9V263V259.9z M46,245.3c12.7,2.5,11.2,9,8.5,7.5c-1.2-1.9-4.2-4.9-8.7-6.9l0.1-0.3L46,245.3z M65.6,268.3
			c-0.1-3.3-1.3-8.6-5.1-11.9l0.4-0.4C71.1,261.8,68.1,271.3,65.6,268.3z"/>
		<path d="M101.8,262.8c-1.2,11.6-15.3,11.7-16.1,11.8c-1.2,0.1-1.8,0.1-1.8-0.1c-0.1-0.2,0.9-0.3,1.4-0.4c4-0.6,13.2-3.4,14-11.8
			c0.8-8.4-5.2-11.8-10.3-12.1c-0.5,0-0.9,0-1.4,0c0.6,1.2,2.1,5-0.5,11.2c-2.9,6.9-7.1,10.1-8.6,9.9c-1.5-0.2-4.1-3-4.4-7.5
			c-0.6-9,6.9-13.8,12.1-14.6C91.9,248.2,103,251.1,101.8,262.8z M86.9,250.2c-4.4,0.5-8.8,3.4-10.5,8.6c-1.9,5.9,1.1,9.1,1.8,9.5
			c0.7,0.4,1.6-0.4,1.6-0.4c4.2-3.1,6.5-9,7-10.6C87.3,255.6,87.5,252.2,86.9,250.2z"/>
		<path d="M112.7,265.5l-0.6,0.3c-0.8,3.3-2,6.8-3.6,9l-0.6-0.3c0.3-0.8,0.6-1.8,0.9-2.8c0.6-2.3,1-5.6,0.9-7.6l2,0.6
			C113.3,264.8,113.3,265.2,112.7,265.5z M117.9,259.3c-0.4-1-0.9-2.1-1.4-2.8l0.4-0.2c5.9,3.7,3.8,8.3,1.8,6.4
			c-0.1-0.8-0.3-1.7-0.6-2.6c-0.8,0.2-1.6,0.4-2.4,0.6v7.4c0.1,4.3,0.1,5.8,0.3,8.5c-0.3,0.4-1,0.9-2.1,0.9c-0.3,0-0.7-0.4-0.7-0.7
			c0.2-3.1,0.3-4.7,0.4-9.4v-6.3c-1.2,0.3-2.4,0.5-3.8,0.8c-0.1,0.5-0.5,0.6-0.8,0.7l-0.8-2.7c0.8,0,1.9-0.1,3.3-0.1
			c0.8-1.4,1.7-2.9,2.6-4.5c1.1-2.1,2.2-4.8,2.7-6.8c3.6,1.7,3.6,2.1,2.9,2.2l-0.6,0.1c-1.5,2.6-4,6.1-6.5,8.9
			C114,259.7,116,259.5,117.9,259.3z M113.2,244.2c3.8,1.4,3.8,1.8,3.2,2l-0.6,0.2c-1.1,1.8-2.4,3.7-3.8,5.2
			c2.7,2.3,1.4,4.9-0.4,3.6c-0.3-1.7-1.9-3.8-3.2-5l0.4-0.3c1,0.3,1.8,0.7,2.4,1.1C112.2,249,113,246.1,113.2,244.2z M117.2,263.9
			c5.2,4,2.9,8.4,1.1,6.4c0-2-0.8-4.6-1.5-6.3L117.2,263.9z M123.2,266.7c0.4,3.3-0.4,6.1-1.3,7.2c-0.6,0.8-1.8,1.2-2.3,0.5
			c-0.4-0.6-0.1-1.4,0.5-2c1-1,2.3-3.5,2.5-5.8L123.2,266.7z M127.3,248.5l-0.6,0.2c-1.5,3-3.7,5.5-5.9,7l-0.5-0.4
			c0.4-0.5,0.9-1.1,1.3-1.8c1.3-2,2.5-5.1,2.8-7.2l2,1C127.9,247.9,127.9,248.2,127.3,248.5z M133.8,258.5c-0.8-1.3-1.7-2.4-2.6-3.3
			l0.4-0.3c7.8,3.5,6,9,3.7,7.2c-0.2-0.9-0.5-1.8-1.1-2.8c-2.6,0.5-6,1.3-10.4,2.1c-0.2,0.4-0.5,0.6-0.9,0.7l-0.9-3
			c0.8,0,1.9,0,3.2-0.1c0.1-0.4,0.3-0.8,0.4-1.2c0.8-2.2,1.7-5.1,1.8-7.2c3.9,0.9,3.9,1.3,3.2,1.5l-0.6,0.3
			c-0.9,1.9-2.3,4.4-3.8,6.4C128.4,258.8,131.1,258.7,133.8,258.5z M124.7,265.2c3.4,1.1,3.4,1.4,2.8,1.8l-0.5,0.4v6.7
			c0,0.5,0.1,0.6,1.1,0.6h2.4c1.1,0,2,0,2.3,0c0.3,0,0.4-0.1,0.5-0.4c0.3-0.5,0.5-2.4,0.9-4.3h0.5l0.1,4.4c0.7,0.3,0.8,0.5,0.8,1
			c0,1-0.9,1.4-5.2,1.4h-2.8c-2.3,0-2.7-0.5-2.7-2.1V270C125,268.4,124.9,266.5,124.7,265.2z M127,262.7c7.4,2.3,5.9,7.5,3.7,5.9
			c-0.4-1.9-2.4-4.3-4-5.5L127,262.7z M140.3,253.3l-0.1,0.4c-0.8,0.2-1.7,0.9-1.9,1.8c-2.8-2.2-4.9-5.3-5.8-8.8h-1.7
			c-1,0-1.9,0.2-2.8,0.5l-1-1.8c1.1,0.2,2.2,0.3,3.2,0.3h1.5l1-1.5l2.8,2c-0.4,0.4-1.2,0.6-2.2,0.7
			C134.5,249.3,137.2,251.8,140.3,253.3z M134.6,265.5c7.5,4.5,5.3,10.2,3.1,8.1c-0.3-2.6-2-5.8-3.5-7.8L134.6,265.5z"/>
		<path d="M155.3,265c0.3-0.4,0.5-0.7,0.8-0.7c0.4,0,2.3,1.6,2.3,2.2c-0.2,0.2-0.6,0.5-1.2,0.6v2.6c0.1,2.6,0.1,3.5,0.2,5
			c-0.3,0.4-1.3,0.9-2,0.9h-0.3v-1.4h-5.7v0.7c0.1,0.7,0,0.9,0.1,1.2c-0.1,0.3-0.8,0.9-1.8,0.9c-0.4,0-0.6-0.4-0.6-0.7
			c0.1-2.2,0.2-3.3,0.3-6.6v-3.6c-1,0.6-2.1,1.2-3.3,1.7l-0.3-0.5c3.2-1.8,5.9-4.4,8-7.2c-1.2-0.8-2.4-1.4-3.5-1.9
			c-1,1.1-2.2,2.1-3.4,2.9l-0.4-0.4c0.9-0.8,1.7-1.8,2.5-3c1.3-2,2.6-5.1,3-7.1c3.4,1.3,3.4,1.7,2.7,1.9l-0.6,0.2
			c-0.3,0.6-0.6,1.2-1,1.7h3.5l0.6-0.7c0.4-0.4,0.6-0.7,0.9-0.7c0.4,0,2.3,1.7,2.3,2.3c-0.3,0.3-0.6,0.4-1.4,0.4
			c-0.7,1.4-1.5,2.8-2.5,4.1c5.5,2.7,5.2,5.7,3.2,5.1c-0.9-1.1-2.6-2.4-4.4-3.6c-1.3,1.4-2.8,2.8-4.5,4l1,0.5h4.9L155.3,265z
			 M158.2,247.5c2.5,2.6,2.5,3,1.8,3l-0.6,0.1c-0.7,0.8-1.9,1.9-2.8,2.4l-0.5-0.3c0.2-0.6,0.6-1.7,0.8-2.6h-9.3
			c-0.2,5.3-4.7,4.1-3.1,1.8c1.2-0.7,2.1-2.3,2.3-4.6l0.5,0c0.1,0.6,0.2,1.2,0.2,1.8h3.7c0-1.5-0.1-3.3-0.3-4.6
			c3.7,1.1,3.7,1.4,3,1.9l-0.6,0.4v2.3h3.3C157.3,248.7,157.8,248,158.2,247.5z M150.5,255.5c-0.5,0.8-1.1,1.5-1.7,2.2
			c1.5,0.4,2.8,0.8,3.9,1.3c0.8-1.2,1.4-2.3,1.9-3.5H150.5z M149.5,273.2h5.7v-6.4h-5.7V273.2z M166.7,272.7h-0.5
			c-1.9,1.9-5.8,3.9-9.1,4.9l-0.3-0.5c0.8-0.4,1.6-0.9,2.4-1.5c1.9-1.4,4.1-3.5,4.9-5.3l1.8,1.3
			C167.3,272.3,167.3,272.6,166.7,272.7z M171.9,251.7c0.3-0.4,0.5-0.8,0.8-0.8c0.4,0,2.4,1.8,2.4,2.3c-0.2,0.3-0.7,0.5-1.3,0.6v7.4
			c0.1,4.3,0.1,5.8,0.3,8.5c-0.3,0.4-1.4,0.9-2.1,0.9h-0.4v-1.3h-8.6v1c0,0.3-0.8,0.8-1.8,0.8c-0.4,0-0.7-0.4-0.7-0.7
			c0.2-2.6,0.3-3.8,0.3-7.7v-4.2c0-2.4-0.1-5.4-0.5-7.4l2.8,1.3h2.2c0.2-1.2,0.5-2.8,0.6-4.1h-2.2c-1.4,0-2.7,0.2-4,0.5L159,247
			c1.6,0.2,3.2,0.3,4.8,0.3h7.5l0.7-1.1c0.4-0.5,0.7-1.1,1-1.1c0.4,0,2.9,2.1,2.9,2.6c0,0.4-0.4,0.6-0.9,0.6h-6.3
			c-0.6,1.4-1.5,3-2.2,4.1h4.9L171.9,251.7z M171.7,253.5h-8.6v4.1h8.6V253.5z M163.1,258.7v4.2h8.6v-4.2H163.1z M163.1,268.3h8.6
			V264h-8.6V268.3z M168.8,270.9c8.7,2.3,7.7,7.7,5.1,6.3c-0.9-2-3.5-4.6-5.5-6L168.8,270.9z"/>
		<path d="M207.7,257.8c0.4-0.5,0.7-1.1,1-1.1c0.4,0,2.9,2.1,2.9,2.7c-0.1,0.4-0.4,0.6-0.9,0.6h-13.5c0.8,2.8,1.9,5.2,3.5,7.2
			c0.4-0.3,0.7-0.6,1.1-0.9c1.8-1.6,3.7-3.8,4.6-5.7c3.4,2.3,3.4,2.7,2.8,2.7l-0.6,0c-1.7,1.4-4.6,3.2-7.3,4.4
			c2.8,3.4,6.6,5.5,10.9,6.6l0,0.4c-1.2,0.4-1.9,1.2-2.2,2.4c-6.7-2.5-11.5-7.9-13.5-17.1H196c-1.3,1.6-2.8,3.1-4.5,4.5v8.3
			c2.5-0.6,5.3-1.3,8.1-2l0.1,0.6c-3.2,1.3-7.6,3.1-13.6,5.4c-0.1,0.4-0.4,0.8-0.7,0.9l-1.6-3.1c1.2-0.2,3.2-0.6,5.5-1.2V266
			c-2.7,1.8-5.7,3.2-8.9,4.4l-0.3-0.5c5.1-2.4,9.8-6.2,12.8-9.9h-6.2c-1.9,0-3.6,0.2-5.4,0.5l-1-1.9c1.6,0.2,3.2,0.3,4.8,0.3h9.9
			v-4.1H190c-1.9,0-3.6,0.2-5.4,0.5l-0.9-1.8c1.6,0.2,3.2,0.3,4.8,0.3h6.4v-4h-6.3c-1.9,0-3.6,0.2-5.4,0.5l-0.9-1.8
			c1.6,0.2,3.2,0.3,4.8,0.3h7.8c0-1.4-0.1-3.2-0.3-4.4c3.8,1.1,3.8,1.5,3.2,1.9l-0.6,0.4v2.1h8.4l0.7-1.1c0.4-0.5,0.7-1.1,1-1.1
			c0.4,0,2.8,2.1,2.8,2.7c-0.1,0.4-0.5,0.5-0.9,0.5h-12.1v4h7.3l0.7-1c0.4-0.5,0.6-1,0.9-1c0.4,0,2.7,1.9,2.7,2.5
			c-0.1,0.4-0.4,0.6-0.9,0.6h-10.7v4.1h9.9L207.7,257.8z"/>
		<path d="M226.1,263.1l-0.6,0.1c-1.8,3.3-5.1,7.7-9.1,10.5l-0.4-0.4c1.6-1.6,3.1-3.7,4.4-5.8c1.3-2,2.3-4.6,2.7-6.6l2.1,1.1
			C226.8,262.6,226.8,262.9,226.1,263.1z M222.3,257.5c-1.9,0-3.6,0.2-5.4,0.5l-0.9-1.9c1.6,0.2,3.2,0.3,4.8,0.3h22l0.8-1.1
			c0.4-0.6,0.8-1.2,1.1-1.2c0.4,0,3.1,2.2,3.1,2.8c-0.1,0.4-0.4,0.6-0.9,0.6h-13.7v16.3c0,1.9-0.5,3.3-3.9,3.6
			c-0.1-0.7-0.3-1.4-0.8-1.8c-0.6-0.4-1.5-0.8-3.3-1v-0.5c0,0,4.1,0.3,4.9,0.3c0.7,0,0.9-0.2,0.9-0.8v-16.2H222.3z M240.1,246.8
			c0.4-0.5,0.8-1.1,1-1.1c0.4,0,3.1,2.2,3.1,2.7c-0.1,0.4-0.5,0.6-1,0.6H226c-1.9,0-3.6,0.2-5.4,0.5l-0.9-1.8
			c1.6,0.2,3.2,0.3,4.8,0.3h14.8L240.1,246.8z M238.1,261.6c11.4,6.7,9.9,13.6,7.1,11.5c-1-3.5-4.8-8.3-7.6-11.2L238.1,261.6z"/>
		<path d="M262.5,245.8c0.1-0.5,1.5-0.3,2.3,0.1c0.9,0.5,1.4,0.9,1.7,2.2c0.3,1.3-0.1,2.5-0.5,3.6c-0.3,1.1-0.8,2.3-0.8,4.5
			c0,2.5,0.6,3.4,1.5,3.7c1,0.3,3.7-0.9,4.7-1.1c1-0.2,1.8,0.4,1.8,1.2c0,0.8-0.4,1.4-1.5,1.6c-1.9,0.3-10,1.4-9,7.7
			c0.5,3.2,4.5,3.7,8.4,2.9c1.4-0.3,4.1-0.7,4.3,1.1c0.1,1.5-2.7,1.6-4.2,1.8c-1.5,0.2-9.8,0.8-10.3-5.4c-0.4-4.6,3.7-7.5,5.8-8.3
			c0,0-1.4-0.2-2.1-1.7c-1.6-3.2-0.6-8.3-0.5-9.8c0.1-1.7-0.1-2.5-0.8-3.2C262.8,246.1,262.5,246,262.5,245.8z"/>
		<path d="M303.3,246.3c0.4-0.5,0.8-1.1,1-1.1c0.4,0,3.1,2.2,3.1,2.7c-0.1,0.4-0.4,0.6-0.9,0.6h-7.8c-0.5,1.7-1.3,4-1.9,5.6h6.3
			l0.5-0.7c0.3-0.3,0.4-0.7,0.7-0.7c0.4,0,2.5,1.5,2.5,2.1c-0.2,0.3-0.7,0.5-1.3,0.6v18.6c0,1.9-0.3,3.1-2.5,3.3
			c0-0.7-0.1-1.4-0.3-1.8c-0.3-0.4-0.7-0.6-1.5-0.8v-0.6c0,0,1.5,0.1,1.9,0.1c0.4,0,0.5-0.1,0.5-0.6v-18.6h-2.7v12.1
			c0.1,4.3,0.1,5.8,0.3,8.5c-0.3,0.3-0.9,0.8-1.9,0.8c-0.3,0-0.7-0.4-0.7-0.7c0.2-3.1,0.3-4.7,0.4-9.4v-11.3h-2.6v12.1
			c0.1,4.3,0.1,5.8,0.3,8.5c-0.3,0.3-0.9,0.8-1.9,0.8c-0.3,0-0.7-0.4-0.7-0.7c0.2-3.1,0.3-4.7,0.4-9.4v-11.3h-2.5v12.8
			c0.1,4.3,0.1,5.8,0.3,8.5c-0.3,0.4-0.9,0.9-1.9,0.9c-0.3,0-0.7-0.4-0.7-0.7c0.2-3.1,0.3-4.7,0.4-9.4v-7.1c0-2.4-0.1-5.4-0.5-7.4
			l2.8,1.3h3.5c0.2-1.7,0.4-4,0.5-5.6h-2.6c-1.7,0-3.2,0.2-4.8,0.5l-0.9-1.9c1.6,0.2,3.2,0.3,4.8,0.3h9.9L303.3,246.3z M316.5,253.1
			l0.6-1c0.3-0.5,0.6-1,0.9-1c0.4,0,2.3,2.1,2.3,2.6c-0.1,0.4-0.4,0.6-0.8,0.6h-3.6V274c0,1.9-0.3,3.1-3.5,3.5
			c-0.1-0.7-0.3-1.4-0.8-1.7c-0.5-0.4-1.3-0.7-2.9-0.9v-0.6c0,0,3.5,0.3,4.2,0.3c0.6,0,0.8-0.2,0.8-0.8v-19.6h-2.5
			c-1.6,0-3,0.2-4.5,0.5l-0.9-1.9c1.6,0.2,3.2,0.3,4.8,0.3h3.1v-0.9c0-2.4-0.1-5.4-0.5-7.4c3.9,1.1,3.9,1.5,3.2,1.9l-0.6,0.4v6
			H316.5z M307.6,257.5c6.3,5,3.7,10.6,1.7,8.4c0.2-2.6-1-6-2.2-8.2L307.6,257.5z"/>
		<path d="M351.4,266.3c0.4-0.5,0.6-0.9,0.9-0.9c0.4,0,2.7,1.8,2.7,2.4c-0.1,0.4-0.5,0.6-0.9,0.6h-13.2c1.1,1.6,2.5,2.9,4.3,3.9
			c1.8-1.1,3.9-2.8,5.1-4.2c2.8,2,2.8,2.4,2.1,2.4h-0.6c-1.4,0.7-3.7,1.6-5.7,2.2c2.7,1.3,6,2,9.8,2.3l0,0.4c-0.9,0.3-1.6,1-1.8,2.1
			c-6.8-1.3-11.5-3.8-14-9.1h-4v5.7c2-0.3,4.2-0.6,6.5-1l0.1,0.6c-2.5,0.8-6.1,1.9-11,3.3c-0.1,0.4-0.5,0.7-0.8,0.8l-1.4-2.7
			c1-0.1,2.5-0.3,4.4-0.6v-6H330c-0.5,3.1-1.9,6.4-5.6,8.9l-0.4-0.5c3.6-3.6,4.1-8.1,4.1-12.2v-2.6c0-0.9,0-1.9-0.1-2.8l2.7,1.4
			h19.1l0.6-0.9c0.4-0.5,0.6-0.9,0.9-0.9c0.4,0,2.6,1.8,2.6,2.3c-0.1,0.4-0.4,0.5-0.9,0.5h-22.8v3c0,0.8,0,1.8-0.1,2.7h20.6
			L351.4,266.3z M352.5,249.5c0.4-0.4,0.6-0.9,0.9-0.9c0.4,0,2.3,2.2,2.3,2.8c-0.2,0.3-0.6,0.3-1.3,0.4c-0.8,0.9-2,2.2-3,2.9
			l-0.5-0.3c0.3-0.8,0.7-2,1-3h-11v2.5c0.1,2.5,0.1,3.3,0.2,4.8c-0.2,0.3-1,0.9-2.2,0.9c-0.4,0-0.6-0.4-0.6-0.7
			c0.1-1.6,0.2-2.4,0.3-4.8v-2.7h-10.2c0,2.1-0.7,3.5-1.6,4c-0.8,0.5-1.9,0.5-2.3-0.3c-0.3-0.7,0.2-1.4,0.9-1.9
			c1.2-0.6,2.1-2.5,2-4.4l0.6,0c0.2,0.5,0.3,1,0.3,1.5h10.3v-2.6H334c-1.9,0-3.6,0.2-5.4,0.5l-1-1.8c1.6,0.2,3.2,0.3,4.8,0.3h16.3
			l0.7-1c0.4-0.5,0.7-1,1-1c0.4,0,2.8,1.9,2.8,2.4c-0.1,0.4-0.4,0.6-0.9,0.6H341v2.6h10.9L352.5,249.5z M334.8,256.6
			c0.3-0.3,0.5-0.7,0.8-0.7c0.4,0,2.1,1.3,2.1,1.9c-0.1,0.4-0.4,0.5-0.9,0.5h-2.7c-1.7,0-3.4,0.2-5,0.5l-0.9-1.8
			c1.4,0.2,2.7,0.3,4.2,0.3h2L334.8,256.6z M331.8,254.9c-0.7,0-1.4,0.2-2,0.5l-0.9-1.8c1.2,0.2,2.4,0.3,3.7,0.3h1.7l0.5-0.7
			c0.3-0.3,0.5-0.7,0.8-0.7c0.4,0,2.1,1.3,2.1,1.8c-0.1,0.4-0.4,0.6-0.9,0.6H333H331.8z M348.4,263c0.4-0.4,0.6-0.8,0.9-0.8
			c0.4,0,2.5,1.6,2.5,2.1c-0.1,0.4-0.4,0.6-0.9,0.6h-13.3c-1.9,0-3.6,0.2-5.4,0.5l-0.9-1.8c1.6,0.2,3.2,0.3,4.8,0.3h11.7L348.4,263z
			 M348.7,256.5c0.3-0.4,0.5-0.7,0.8-0.7c0.4,0,2.2,1.4,2.2,1.9c-0.1,0.4-0.4,0.5-0.9,0.5H348c-1.8,0-3.5,0.2-5.2,0.5l-0.9-1.8
			c1.4,0.2,2.8,0.3,4.2,0.3h2L348.7,256.5z M345,254.9c-0.7,0-1.4,0.2-2.1,0.5l-0.9-1.8c1.2,0.2,2.4,0.3,3.7,0.3h1.8l0.5-0.7
			c0.3-0.4,0.5-0.7,0.8-0.7c0.4,0,2.1,1.3,2.1,1.9c-0.1,0.4-0.4,0.6-0.9,0.6h-3.7H345z"/>
		<path d="M369.1,252c0.4-0.5,0.6-1,0.9-1c0.4,0,2.6,2,2.6,2.5c-0.1,0.4-0.5,0.6-0.9,0.6h-4.5v3.1c6.5,3.1,4.7,7.3,2.7,5.7
			c-0.4-1.5-1.6-3.6-2.7-5v10.1c0.1,4.3,0.1,5.8,0.3,8.5c-0.3,0.5-1.2,1-2,1c-0.5,0-0.9-0.4-0.9-0.7c0.2-3.1,0.3-4.7,0.4-9.4v-6.6
			c-1.2,3.1-2.8,6-4.9,8.5l-0.5-0.5c2.6-4.1,4.1-9.4,4.9-14.8h-1.5c-0.9,0-1.7,0.2-2.5,0.5l-0.9-1.8c1.2,0.2,2.4,0.3,3.7,0.3h1.7
			v-1.3c0-2.4-0.1-5.4-0.5-7.4c3.9,1.2,3.9,1.5,3.2,1.9l-0.6,0.4v6.3h1.1L369.1,252z M386.8,259.4c0.3-0.4,0.5-0.8,0.8-0.8
			c0.4,0,2.7,1.8,2.7,2.4c-0.2,0.3-0.8,0.5-1.5,0.7v8h0.1l0.6-0.9c0.3-0.5,0.5-0.9,0.8-0.9c0.4,0,2.1,1.8,2.1,2.3
			c-0.1,0.4-0.4,0.6-0.8,0.6h-2.7v3.6c0,1.8-0.3,2.8-3.2,3.2c-0.1-0.7-0.3-1.3-0.6-1.6c-0.5-0.3-1.2-0.6-2.5-0.8v-0.6
			c0,0,2.9,0.2,3.5,0.2c0.6,0,0.8-0.2,0.8-0.7v-3.3h-11.9v2c0.1,2,0.1,2.7,0.2,3.8c-0.2,0.4-1,1-1.9,1c-0.3,0-0.5-0.4-0.5-0.7
			c0.1-1.3,0.1-1.9,0.2-3.8v-2.3h-1c-0.6,0-1.1,0.2-1.6,0.5l-0.9-1.8c0.8,0.2,1.6,0.3,2.4,0.3h1.1v-3.3c0-2.4-0.1-5.4-0.5-7.4
			l2.7,1.3h4.6v-2.7h-3c-1.9,0-3.6,0.2-5.4,0.5l-0.9-1.9c1.3,0.2,2.6,0.3,4,0.3h1.8v-3.1h-1.1c-0.6,0-1.2,0.2-1.8,0.5l-0.9-1.9
			c0.9,0.2,1.7,0.3,2.6,0.3h1.2v-2.9h-1.5c-0.9,0-1.8,0.2-2.7,0.5l-0.9-1.8c1.2,0.2,2.3,0.3,3.5,0.3h1.7c0-1.3-0.1-2.8-0.2-3.9
			c3.5,1.1,3.5,1.5,2.9,1.9l-0.6,0.4v1.7h4.7c0-1.3-0.1-2.8-0.2-3.9c3.5,1.1,3.5,1.5,2.9,1.9l-0.6,0.4v1.6h2.4l0.6-0.9
			c0.4-0.5,0.6-1,0.9-1c0.4,0,2.6,1.8,2.6,2.4c-0.1,0.4-0.4,0.5-0.9,0.5h-5.6v2.9h1.8l0.6-0.9c0.3-0.4,0.6-0.9,0.9-0.9
			c0.4,0,2.4,1.7,2.4,2.3c-0.1,0.4-0.4,0.6-0.9,0.6h-4.8v3.1h2.9l0.6-0.9c0.4-0.5,0.6-0.9,0.9-0.9c0.4,0,2.5,1.8,2.5,2.3
			c-0.1,0.4-0.4,0.6-0.8,0.6h-9.4v2.7h4.7L386.8,259.4z M379.6,261.2h-4.8v3.5h4.8V261.2z M374.8,265.8v3.9h4.8v-3.9H374.8z
			 M378.1,249.4v2.9h4.7v-2.9H378.1z M378.1,253.4v3.1h4.7v-3.1H378.1z M386.7,261.2h-5v3.5h5V261.2z M381.6,269.6h5v-3.9h-5V269.6z
			"/>
		<path d="M401.5,258.8c0.3-0.5,0.5-1,0.8-1c0.4,0,2.9,2.2,2.9,2.8c-0.2,0.3-0.7,0.5-1.7,0.6v9.7c2.4,2.9,5,3.3,10.9,3.3
			c4.1,0,9.5,0,13.6-0.1v0.5c-1,0.2-1.5,0.9-1.7,2h-11.9c-6.3,0-9-0.8-11.4-5c-1.4,1.6-3.7,3.8-5,4.9c0.1,0.5-0.1,0.7-0.4,0.9
			l-1.7-3c1.4-0.6,3.5-1.8,5.4-2.9v-10.6h-1.7c-1.1,0-2,0.2-3,0.5l-0.8-1.9c1.2,0.2,2.3,0.3,3.5,0.3h1.7L401.5,258.8z M398,245.6
			c8.2,2.8,6.4,8.6,3.9,6.7c-0.5-2.2-2.6-4.9-4.2-6.4L398,245.6z M424,255.4c0.4-0.5,0.7-1.1,1-1.1c0.4,0,2.9,2.1,2.9,2.6
			c-0.1,0.4-0.4,0.6-0.9,0.6h-15.8c-1.9,0-3.6,0.2-5.4,0.5l-0.9-1.8c1.6,0.2,3.2,0.3,4.8,0.3h5.7v-5.3h-5.3c-1,1.7-2.1,3.2-3.3,4.3
			l-0.5-0.3c0.5-0.8,1-1.8,1.4-2.8c0.9-2.2,1.7-5.5,1.7-7.5c4,1.2,4,1.5,3.3,1.8l-0.6,0.3c-0.4,1.2-0.9,2.2-1.4,3.3h4.7
			c0-1.8-0.1-4.1-0.4-5.7c3.9,1.1,3.9,1.4,3.2,1.9l-0.6,0.4v3.4h4.4l0.7-1c0.4-0.5,0.7-1.1,1-1.1c0.4,0,3,2.1,3,2.6
			c-0.1,0.4-0.5,0.6-0.9,0.6h-8.1v5.3h5.7L424,255.4z M422.5,260.1c0.3-0.4,0.5-0.8,0.8-0.8c0.4,0,2.6,1.8,2.6,2.3
			c-0.2,0.3-0.7,0.6-1.3,0.7v3c0.1,3,0.1,4,0.2,5.8c-0.3,0.4-1.4,1-2.1,1c-0.4,0-0.5-0.4-0.5-0.7c0.1-0.3,0.1-0.4,0.1-0.8v-0.8H411
			v1.7c0,0.2-0.9,0.8-1.9,0.8c-0.3,0-0.5-0.4-0.5-0.7c0.1-1.1,0.1-1.7,0.2-3.4V266c0-2.1-0.1-4.7-0.4-6.4l2.8,1.3h10.7L422.5,260.1z
			 M411,268.7h11.2v-6.8H411V268.7z"/>
		<path d="M454,251.2c-2-0.3-4.1,0.5-4.4,0.7c-0.7,0.4-2.6,2.5-3.6,5.3c-2.3,6.9-1.6,11.5-0.3,13.4c1.2,1.8,4,1.2,5.6,1.2
			c1.8-0.1,3.4,0.2,3.4,1.3c0,1-1.9,1.3-2.7,1.3c-3.1,0.2-5.8,0.3-7.6-2.1c-1.7-2.1-1.9-4.2-1.9-6.7c-0.1-8.5,5.5-13.5,5.4-13.8
			c-0.1-0.2-0.5,0.1-0.9,0.1c-1.5,0.4-6.8,2.7-8.3,3.3c-0.6,0.3-2.1,1.3-3,1.4c-1.6,0.2-3.6-2.3-3.7-2.5c-0.2-0.2-0.2-0.5-0.1-0.7
			c0.2-0.2,0.4-0.1,0.7,0c0.3,0.1,1.3,0.9,2.6,0.6c1.3-0.3,10-3.5,15.8-4.4c1.1-0.1,1.7-0.7,3.2-1c1.1-0.2,3.1,0.7,3.5,1.4
			c0.4,0.7,0.5,1.3-0.3,1.6C457.2,251.7,455.1,251.3,454,251.2z M457.8,246.2c0.5,0.1,3.8,1.2,3.9,3.4c0,0.7-0.2,1-0.6,1.2
			c-0.4,0.1-1.3-0.1-1.7-0.9c-0.4-0.9-1.2-2.4-2.1-2.9c-0.4-0.2-0.8-0.5-0.8-0.7C456.7,245.9,457.3,246.1,457.8,246.2z M461.6,244.4
			c0.5,0.1,4,0.9,4,3.2c0,0.6-0.3,0.8-0.5,0.9c-0.4,0.2-1.2,0-1.7-0.8c-0.5-0.9-1.4-2.2-2.3-2.6c-0.4-0.2-0.9-0.4-0.8-0.6
			C460.4,244.1,461.1,244.3,461.6,244.4z"/>
		<path d="M496.2,248.1c0.4-0.4,0.6-0.9,0.9-0.9c0.4,0,2.5,2.3,2.5,2.9c-0.3,0.3-0.6,0.3-1.3,0.4c-1,1.1-2.8,2.6-4.1,3.4
			c0.4,0.3,0.8,0.7,1.1,1c-0.1,0.4-0.4,0.5-0.9,0.5h-8.2c0.7,2.8,1.7,5.4,3.1,7.7c0.4-0.3,0.8-0.6,1.2-1c1.8-1.6,3.7-3.9,4.6-5.7
			c3.2,2.2,3.2,2.6,2.6,2.6l-0.6,0c-1.7,1.5-4.6,3.3-7.4,4.6c2.5,4.1,6,7.1,10.2,9.1l-0.1,0.3c-1,0.1-1.9,0.8-2.4,1.9
			c-6.2-3.9-10.3-10.4-11.9-19.7h-0.6c-1.2,1-2.4,2-3.9,2.8c6.8,5.5,7,15.1,4.4,18c-0.7,0.9-1.9,1.3-3.8,1.3c0-0.8-0.3-1.2-0.7-1.5
			c-0.5-0.3-1.7-0.7-3-0.9l0-0.6c1.4,0.1,3.9,0.3,4.8,0.3c0.4,0,0.8-0.1,1-0.4c0.9-1.2,1.3-3.8,0.9-6.8c-4.1,3.4-10.2,6.4-16.2,8
			l-0.3-0.6c5.9-2.1,12.3-6,15.8-10.3c-0.2-0.7-0.5-1.4-0.8-2.1c-3.5,2.6-8.7,5.2-13.4,6.6l-0.3-0.6c4.5-1.8,9.6-5,12.5-8.2
			c-0.4-0.6-0.9-1.2-1.4-1.8c-3.1,1.8-6.7,3.2-10.4,4.3l-0.3-0.6c4.4-1.7,8.7-4.3,11.8-6.9h-2.7c-1.7,0-3.4,0.2-5,0.5l-0.9-1.8
			c1.6,0.2,3.2,0.3,4.8,0.3h13.2l1.5-2.1c0,0,0.6,0.5,1.4,1.1c0.5-0.9,1.2-2.3,1.8-3.5H473c-0.1,2.3-1,3.9-2,4.7
			c-0.9,0.6-2.1,0.8-2.6,0c-0.3-0.8,0.1-1.5,0.8-2c1.4-0.8,2.8-3.2,2.7-5.8h0.6c0.2,0.8,0.3,1.5,0.4,2.2h9.7c0-1.5-0.1-3.3-0.3-4.6
			c3.9,1.1,3.9,1.5,3.2,1.9l-0.6,0.4v2.3h10.4L496.2,248.1z"/>
		<path d="M514.9,272c0-0.3,0.4-0.4,0.5-0.4c7.1-0.4,13.6-3.7,15.2-9c1.3-4.7-1-7.8-4-8.9c-5.1-1.8-12.3,3.7-13.3,4.3
			c-0.8,0.6-2.3,2-3.9,2.3c-1.4,0.3-3.3-1.3-3.9-1.9c-0.6-0.5-0.6-0.9-0.5-1c0.3-0.4,0.6-0.2,1-0.1c0.4,0.1,1.3,0.4,2.3,0.3
			c2.4-0.5,12.1-7.2,18.5-5c6.3,2.2,6.8,6.8,6.3,10c-0.3,1.6-1.7,9-17.8,9.7C515.3,272.3,515,272.3,514.9,272z M529.7,249.9
			c0.5,0,4,0.1,4.6,2.2c0.2,0.7,0.1,1.1-0.3,1.3c-0.4,0.3-1.2,0.3-1.9-0.5c-0.6-0.8-1.8-1.9-2.8-2.2c-0.4-0.1-0.9-0.2-0.9-0.5
			C528.5,250,529.2,249.9,529.7,249.9z M532.3,247.2c0.5,0,4.1-0.1,4.8,2.1c0.2,0.6-0.1,0.9-0.3,1c-0.4,0.3-1.1,0.3-1.8-0.3
			c-0.7-0.7-1.9-1.7-3-1.9c-0.4-0.1-0.9-0.1-0.9-0.4C531.1,247.4,531.8,247.3,532.3,247.2z"/>
		<path d="M556.6,273.2c-2.5-6.3-3.8-7.2-4.8-8.5c-1.1-1.5-1.7-2.3-1.8-3.4c-0.1-1.1,0.5-2.2,1.5-3.7c2.5-4,5-7.4,5.3-8
			c0.6-1.4,0.4-2.2,0-2.5c-0.3-0.3-1.2-0.7-0.9-1.1c0.3-0.3,2.1,0.2,3.3,1c1.2,0.8,0.8,2.1,0.5,2.6c-0.6,1.2-1.9,2.3-3.9,4.7
			c-1.7,2-3.4,4.3-4.2,5.5c-0.6,0.9-0.5,1.7,0.1,2.3c1.5,1.7,7.6,7.7,8.1,12.3c0.2,1.4-0.2,2-0.9,2.1
			C557.6,276.5,557.1,274.5,556.6,273.2z"/>
		<path d="M589.9,247.7c0.4,2.4-1,6.1-1.7,7.8c-0.1,0.3-0.1,0.5-0.2,0.7c1-1.8,2.7-3.5,4.9-3.4c2.7,0.1,6.4,3.5,4.9,12.2
			s-9.1,10.7-10.1,11c-0.2,0-0.4,0-0.5-0.2c0-0.1,0-0.3,0.2-0.3c5.3-2.2,7.4-6.4,8.2-11.3c0.8-5.3-1.1-10.2-3.4-10.2
			c-2.3,0-3.7,2.4-4.2,4.6c-0.6,3.2,0.1,3.8,0.5,4.9c0.3,0.6,1,1.8,0.5,2.4c-0.3,0.4-0.8,0.4-1.4,0.1c-1.2-0.6-1.8-2-2.1-3.6
			c-0.7-4,2.5-10.9,2.8-13.4c0.1-1.1,0.1-1.7-0.4-2.3c-0.4-0.4-1-0.7-0.8-0.9c0.2-0.2,0.9-0.1,1.6,0.3
			C589.5,246.6,589.8,247.1,589.9,247.7z"/>
		<path d="M639.8,258.7c-1.1,1.5-3,2.4-4.6,3.1c-1.4,0.6-3.9,1.5-6.3,2.6c-0.2,2-0.1,4.6-0.1,5.2c-0.1,0.8-0.8,1.3-1.3,1.3
			c-0.6,0-1-0.6-1.1-1.3c0-0.4,0.2-2.3,0.4-4.1c-0.7,0.3-1.3,0.7-1.9,1.1c-1.8,1.3-2.7,3.2-2.6,4.5c0.2,1.4,2.1,2.1,3.2,2.2
			c2.8,0.3,3.9,0.1,6.1-0.5c1.9-0.5,2.7-0.3,3,0.5c0.4,1.1-1.9,1.8-3.1,2c-1.4,0.2-3.3,0.3-5.7,0.1c-4.1-0.5-4.8-2.4-5-4
			c-0.1-1.1,0.3-3.4,3-5.4c0.7-0.5,1.7-1,2.8-1.6c0-0.8,0-1.5,0-2.1c-0.3-1.9-0.8-2.7-2.1-2.8c-1.5-0.1-3.6,2.2-4.8,3.8
			c-0.3,0.4-0.5,0.8-0.8,1.1c-0.4,0.5-1.2,1.7-1.5,1.9s-1.2-0.1-1.5-0.7c-0.3-0.6-0.1-1.6,0.3-2.1c0.5-0.6,2.8-2.3,4.1-4.5
			c1-1.7,2.2-4.2,3-6.7c-1.2,0.3-2.6,0.5-3.8,0.3c-1.2-0.2-2.4-1.1-3-1.6c-0.1-0.1-0.2-0.3-0.1-0.3c0.1-0.2,0.5,0,0.6,0
			c0.2,0.1,1.5,0.5,3,0.4c0.8-0.1,2.3-0.3,3.8-0.8c0.1-0.4,0.1-0.8,0.2-1.3c0.1-0.9,0-2-1.1-2.9c-0.2-0.1-0.2-0.1-0.1-0.5
			c0.1-0.3,0.4-0.3,0.5-0.3c0.2,0,2,0.3,2.3,0.7c0.2,0.3,0.2,0.9,0.1,1.5c0.4,0.4,1.3,0.5,2.1,0.4c0.3-0.1,1.5-0.4,1.7,0.3
			c0.2,0.7-0.8,1.7-1.9,2.3c-0.5,0.3-1.6,0.8-3,1.3c-0.6,2.1-1.5,4.5-2.5,6.9c1.2-0.6,2.4-0.6,3.5-0.3c2.1,0.5,2.6,3.5,2.6,3.5
			c0.5-1.3,1.2-2.8,3.2-4.9c1.4-1.5,4-3.1,6.2-2.8C640.2,254.5,641.1,256.9,639.8,258.7z M625.5,249.8c0.4-0.2,0.8-0.4,1.1-0.7
			c0-0.1-0.1-0.3-0.4-0.4c-0.1-0.1-0.3-0.1-0.4-0.2C625.7,248.9,625.6,249.3,625.5,249.8z M638,255.6c-1.2-0.9-3.8,0.2-5.7,2.1
			c-1.5,1.5-2.3,2.7-3.2,5.5c0,0,0,0.1,0,0.1c1.7-0.8,3.5-1.7,5.2-2.7C637.3,258.8,638.9,256.3,638,255.6z"/>
		<path d="M679.6,257.1c-0.1,0.6-0.3,0.8-2.5,0.5c-1.5-0.2-5.1-0.3-8.6-0.3c-0.4,10.9-3.8,16.1-10.2,19.3c-0.3,0.2-0.6,0.3-0.8,0.1
			c-0.1-0.1,0-0.3,0.6-0.7c5.7-3.7,8-9.9,8.1-18.6c-0.8,0-1.5,0.1-2.2,0.1c-1,0.1-2.2,0.2-3.3,0.3c0,2.1,0,4.3,0.1,5
			c0.1,1.5,0.3,3.3-0.9,3.4c-0.4,0-1.6-1.3-1.3-3.3c0.1-1.1,0.2-3,0.1-4.8c-2.8,0.4-5.3,0.8-6,1c-1.3,0.4-2.1,0.3-3.1-0.5
			c-1-0.8-1.8-2-1.5-2.3c0.2-0.2,0.7,0.1,1.1,0.4c0.4,0.3,1.8,0.6,3.6,0.6c1,0,3.4-0.3,5.9-0.6c0-1.5-0.1-2.9-0.3-3.3
			c-0.2-1-0.8-1.7-1.9-2c-0.3-0.1-0.8-0.1-0.7-0.4c0.1-0.3,1.2-0.6,1.9-0.5c1.3,0,2.4,0.2,3.2,1.1c0.5,0.5-0.2,1.2-0.2,1.9v3.1
			c1.4-0.2,2.6-0.3,3.5-0.4c0.7,0,1.4-0.1,2-0.1v-0.7c0-1.4,0-3.1-0.2-4.4c-0.1-0.6-0.1-0.7-0.5-1.8c-0.4-1.1-1.6-1.4-1.9-1.6
			c-0.3-0.1-0.4-0.1-0.3-0.3c0.2-0.5,1.5-0.9,2.6-0.6c1.5,0.6,3.4,1.2,3.4,2c0.1,0.9-0.5,1-0.6,2.1c-0.1,1-0.1,2.6-0.1,4.2v0.9
			c1.4-0.1,2.9-0.1,4.5-0.3c1.3-0.1,2.3-1,3-1C677.8,255,679.7,256.2,679.6,257.1z"/>
		<path d="M685.9,269.2c-0.4-1.4,0.9-2.2,2.2-2.8c1.3-0.6,2.6-1.4,3.7-3c0.3-0.4,0.4-0.8,0.6-0.8c0.3,0.1,0,0.7-0.1,1.2
			c-0.6,2.5-2.3,5.3-3.6,5.9C687.9,270.3,686.3,270.3,685.9,269.2z M700.7,258.3v1.5c0,4.7,0.8,9.6,0.4,12.1
			c-0.5,2.4-1.4,2.7-1.9,2.7c-0.4,0.1-0.8-0.1-0.9-1.2c-0.4-2.2-3.1-3.8-3.4-4c-0.3-0.2-0.3-0.5,0.2-0.4c0.2,0,1.6,0.6,2.7,0.7
			c1.1,0.1,0.9-1,0.9-1.5c0-1.8,0-6-0.1-9.7c-2.4,0.3-4.8,0.7-6.7,1.2c-2.3,0.6-4.2,0.6-5-1.6c-0.2-0.5-0.4-1-0.2-1.1
			c0.2-0.1,0.5,0.1,0.9,0.3c0.5,0.2,1.9,0.6,3.5,0.6c0.7,0,4.1-0.2,7.5-0.5c-0.1-2.8-0.2-5.2-0.4-5.5c-0.5-0.8-1-1.1-1.4-1.3
			c-0.4-0.2-0.8-0.3-0.5-0.6c0.4-0.4,0.9-0.6,1.7-0.6c0.8,0,2.7,1.2,3.1,1.9c0.4,0.7,0.4,1.1,0,1.7c-0.2,0.5-0.4,1.5-0.4,4.1
			c2.7-0.3,5-0.5,5.7-0.8c1.8-0.6,2.1-1.4,3.7-1c1.7,0.4,3.4,1.4,3.4,2.1c0,0.7-0.4,1-2,0.7C709.3,257.8,705,257.9,700.7,258.3z
			 M709.5,245.9c1.9,0,3.4,1.5,3.4,3.5c0,1.9-1.5,3.4-3.4,3.4c-1.9,0-3.5-1.5-3.5-3.4C706.1,247.4,707.6,245.9,709.5,245.9z
			 M706.2,263c0-0.1,0.3-0.1,0.7,0c2.7,0.5,7,2.3,7.6,5.1c0.4,2.2-1,2.3-1.4,2.3c-1.2-0.3-1.2-1.3-2.5-3.3c-1-1.4-2-2.5-3.7-3.4
			C706,263.2,706.1,263.1,706.2,263z M709.5,246.8c-1.4,0-2.5,1.1-2.5,2.5c0,1.4,1.1,2.5,2.5,2.5c1.4,0,2.5-1.1,2.5-2.5
			C712,247.9,710.9,246.8,709.5,246.8z"/>
		<path d="M721.8,259.3c0.2,0,0.6,0.5,1.1,0.6c0.8,0.3,2.1,0.6,3.9,0.5s7,0.1,9.7,0c7.6-0.1,8.8-0.1,10.6-0.1c1.8,0,3.5,0.1,3.3,1.7
			c-0.1,0.6-2.3,0.7-2.9,0.7c-1.3-0.1-6.2,0-11.2,0c-2.3,0-9,0-10.5,0.3c-1.3,0.2-2.1,0.3-2.9-0.3c-0.8-0.5-2-1.7-1.5-3.1
			C721.6,259.5,721.7,259.3,721.8,259.3z"/>
		<path d="M779.5,261.1c1,1.3,0.5,2.7-0.3,3c-0.8,0.3-1.8-0.6-2.8-1.9c-1.4-1.9-3.3-3.5-5.5-4.6c0,5.4-0.1,12.8,0.1,14.1
			c0.5,2.4,0.8,3.3-0.6,4.2c-1,0.7-1.9-1.8-2.2-3.1c-0.3-1.4,0.1-0.9,0.3-3.4c0.2-2.6,0.6-16.5,0.2-19.5c-0.2-1.4-1.1-1.8-1.5-2.1
			c-0.1-0.1-0.3-0.3-0.3-0.5c0.1-0.3,0.3-0.4,1-0.5c1.5-0.3,2.4,0.1,3,0.7c0.6,0.6,0.4,1.2,0.3,1.7c-0.1,0.5-0.3,1.6-0.3,2.8
			c0,0.4,0,2.3,0,4.8C773.5,257.2,777.4,258.4,779.5,261.1z"/>
		<path d="M793.5,272.9c0-1.2,1-2.2,2.2-2.2c1.3,0,2.2,1,2.2,2.2c0,1.2-1,2.2-2.2,2.2C794.5,275.1,793.5,274.1,793.5,272.9z
			 M797.6,249.9c0,1.6-0.4,5.1-0.9,10.5l-0.4,6.3h-1.1l-0.4-6.3c-0.5-5.4-0.9-8.9-0.9-10.5c0-1.4,0.7-2.1,1.8-2.1
			C796.9,247.8,797.6,248.4,797.6,249.9z"/>
	</g>
</g>
<g>
	<g>
		<path d="M228.3,116.6c0,7-2.8,9.5-8,9.5c-1.2,0-2.4-0.1-3.3-0.3v-3.4c0.6,0.1,1.9,0.2,2.9,0.2c3.7,0,4.2-2.8,4.2-5.8V94.6h4.1
			V116.6z"/>
		<path d="M243.1,125.7v-11.4c0-0.3,0-0.6-0.2-0.8L232,94.6h4.7c2.8,5,7.3,13.1,8.7,15.8c1.3-2.7,6-10.7,8.9-15.8h4.4l-11.3,18.9
			c-0.1,0.2-0.2,0.4-0.2,0.8v11.3H243.1z"/>
		<path d="M266.6,94.6v18.7c0,7.3,4,9.3,8,9.3c4.6,0,7.9-2.1,7.9-9.3V94.6h4.1v18.5c0,10.1-5.6,13-12.2,13
			c-6.5,0-12.1-3.1-12.1-12.7V94.6H266.6z"/>
		<path d="M294.5,94.6h4.1v15.3c2.3-2.4,10.2-10.2,15.1-15.3h5.1l-13.3,13.1l14,17.9h-5l-11.9-15.3l-4,3.6v11.7h-4.1V94.6z"/>
		<path d="M329.8,125.7v-11.4c0-0.3,0-0.6-0.2-0.8l-10.9-18.8h4.7c2.8,5,7.3,13.1,8.7,15.8c1.3-2.7,6-10.7,8.9-15.8h4.4l-11.3,18.9
			c-0.1,0.2-0.2,0.4-0.2,0.8v11.3H329.8z"/>
		<path d="M376.4,110c0,8.6-4.8,16.1-14.5,16.1c-9.1,0-14.2-7-14.2-16c0-8.9,5.2-16,14.6-16C371,94.2,376.4,100.7,376.4,110z
			 M352,110c0,6.7,3.4,12.6,10.1,12.6c7.2,0,10.1-5.9,10.1-12.5c0-6.7-3.3-12.4-10.1-12.4C355,97.7,352,103.4,352,110z"/>
		<path d="M380,104.7c1.2-3.8,2-8.9,2.1-11.8h4.1c-0.3,3.7-1.5,8.9-2.9,11.8H380z"/>
		<path d="M395.5,117c0.8,3.7,3.4,5.8,7.9,5.8c4.8,0,6.7-2.3,6.7-5.2c0-3.1-1.5-4.9-7.7-6.3c-7.3-1.8-9.9-4.3-9.9-8.7
			c0-4.6,3.4-8.4,10.3-8.4c7.4,0,10.4,4.3,10.9,8.3h-4.2c-0.6-2.7-2.3-5-6.8-5c-3.8,0-5.9,1.7-5.9,4.6c0,2.9,1.7,4.1,7.2,5.4
			c8.8,2.1,10.4,5.6,10.4,9.6c0,5-3.7,8.9-11.3,8.9c-7.8,0-11.2-4.3-11.8-9.1H395.5z"/>
		<path d="M429.5,94.6h4.1v13h16.1v-13h4.1v31h-4.1v-14.5h-16.1v14.5h-4.1V94.6z"/>
		<path d="M489.1,110c0,8.6-4.8,16.1-14.5,16.1c-9.1,0-14.2-7-14.2-16c0-8.9,5.2-16,14.6-16C483.7,94.2,489.1,100.7,489.1,110z
			 M464.7,110c0,6.7,3.4,12.6,10.1,12.6c7.2,0,10.1-5.9,10.1-12.5c0-6.7-3.3-12.4-10.1-12.4C467.8,97.7,464.7,103.4,464.7,110z"/>
		<path d="M499.5,94.6v18.7c0,7.3,4,9.3,8,9.3c4.6,0,7.9-2.1,7.9-9.3V94.6h4.1v18.5c0,10.1-5.6,13-12.2,13
			c-6.5,0-12.1-3.1-12.1-12.7V94.6H499.5z"/>
		<path d="M529.4,117c0.8,3.7,3.4,5.8,7.9,5.8c4.8,0,6.7-2.3,6.7-5.2c0-3.1-1.5-4.9-7.7-6.3c-7.3-1.8-9.9-4.3-9.9-8.7
			c0-4.6,3.4-8.4,10.3-8.4c7.4,0,10.4,4.3,10.9,8.3h-4.2c-0.6-2.7-2.3-5-6.8-5c-3.8,0-5.9,1.7-5.9,4.6c0,2.9,1.7,4.1,7.2,5.4
			c8.8,2.1,10.4,5.6,10.4,9.6c0,5-3.7,8.9-11.3,8.9c-7.8,0-11.2-4.3-11.8-9.1H529.4z"/>
		<path d="M573.9,111.2h-15.4v11h16.9l-0.5,3.5h-20.4v-31h20.2v3.5h-16.2v9.5h15.4V111.2z"/>
	</g>
	<g>
		<g>
			<path d="M334.1,9.5l-0.3-0.2c1-1.4,2-3.3,2.9-5.5c0.5-1.1,0.9-2.9,1-3.9c2,0.7,2,0.8,1.7,1l-0.3,0.1c-0.6,1.7-1.3,3.2-2.1,4.6
				c1,0.7,1,0.9,0.7,1l-0.3,0.1V12c0,2.2,0.1,2.9,0.1,4.3c-0.2,0.2-0.6,0.5-1.1,0.5c-0.2,0-0.4-0.2-0.4-0.4c0.1-1.6,0.2-2.4,0.2-4.7
				V6.7C335.6,7.8,334.9,8.8,334.1,9.5z M347.4,8.9c0.2-0.3,0.4-0.5,0.5-0.5c0.2,0,1.4,1,1.4,1.3c0,0.2-0.2,0.3-0.5,0.3h-4.4v5.5
				h3.2l0.4-0.6c0.2-0.3,0.4-0.6,0.5-0.6c0.2,0,1.6,1.1,1.6,1.4c-0.1,0.2-0.2,0.3-0.5,0.3h-8.5c-0.9,0-1.8,0.1-2.7,0.3l-0.5-0.9
				c0.8,0.1,1.6,0.1,2.4,0.1h2.8V9.9h-1.4c-0.8,0-1.7,0.1-2.5,0.3L339,9.3c0.8,0.1,1.6,0.1,2.4,0.1h1.9V4.8h-1.7
				c-0.9,0-1.8,0.1-2.7,0.3l-0.5-0.9c0.8,0.1,1.6,0.1,2.4,0.1h6.5l0.4-0.5c0.2-0.3,0.4-0.6,0.5-0.6c0.2,0,1.5,1.1,1.5,1.3
				c-0.1,0.2-0.2,0.3-0.5,0.3h-4.8v4.6h2.6L347.4,8.9z M341.8,0.3c4.4,1.2,3.8,4,2.5,3.3c-0.4-1.1-1.7-2.4-2.7-3.1L341.8,0.3z"/>
			<path d="M356.1,4.8c0.2-0.3,0.3-0.5,0.5-0.5c0.2,0,1.3,1,1.3,1.3c-0.1,0.2-0.2,0.3-0.5,0.3h-2.2v6.1c0,2.2,0.1,2.9,0.1,4.3
				c-0.1,0.3-0.6,0.6-1,0.6c-0.2,0-0.4-0.2-0.4-0.4c0.1-1.6,0.2-2.4,0.2-4.7V5.8h-0.6c-0.4,0-0.7,0.1-1.1,0.3l-0.5-0.9
				c0.5,0.1,1,0.1,1.5,0.1h0.7V3.8c0-1.2-0.1-2.7-0.2-3.7c2,0.6,2,0.8,1.7,1l-0.3,0.2v4h0.6L356.1,4.8z M361.1,8.7l1.1,1.1l-0.1-0.3
				h1.8c0.1-0.7,0-1.6-0.1-2.2c1.8,0.1,1.8,0.3,1.5,0.5L365.1,8c0,0.5,0,1-0.1,1.5h1.5l0.3-0.3c0.1-0.2,0.2-0.3,0.4-0.3
				c0.2,0,1.2,0.8,1.2,1.1c-0.1,0.1-0.3,0.2-0.7,0.3c-0.1,3.6-0.5,5.4-1.1,6c-0.4,0.4-0.9,0.5-1.5,0.5c0-0.3,0-0.6-0.3-0.8
				c-0.2-0.2-0.7-0.3-1.1-0.4l0-0.3c0.5,0.1,1.4,0.1,1.7,0.1c0.3,0,0.4,0,0.5-0.2c0.4-0.4,0.6-2,0.7-5.1H365
				c-0.3,2.2-0.9,4.7-3.5,6.6l-0.3-0.3c1.9-1.9,2.5-4.2,2.7-6.3h-1.6l0-0.1c-0.1,0.1-0.3,0.2-0.6,0.2c-0.1,3.8-0.4,5.4-1,6
				c-0.4,0.4-0.9,0.5-1.4,0.5c0-0.3,0-0.6-0.2-0.7c-0.2-0.2-0.6-0.3-1-0.3l0-0.3c0.5,0,1.1,0.1,1.4,0.1c0.3,0,0.4,0,0.5-0.2
				c0.4-0.3,0.6-1.9,0.7-5.1h-1.5c-0.2,2.2-0.8,4.7-3.1,6.6l-0.3-0.3c1.7-1.9,2.2-4.2,2.3-6.3h-0.5c-0.3,0-0.6,0.1-0.8,0.3l-0.5-0.9
				c0.4,0.1,0.8,0.1,1.3,0.1h0.6c0-0.7,0-1.6-0.1-2.2c1.7,0.2,1.7,0.3,1.5,0.5L359.3,8c0,0.5-0.1,1-0.1,1.5h1.3
				C360.7,9.3,360.9,9,361.1,8.7z M365.5,1.9c0.2-0.2,0.3-0.4,0.4-0.4c0.2,0,1.2,0.9,1.2,1.2c-0.1,0.1-0.3,0.2-0.7,0.3
				c-0.2,2-0.6,3.2-1.3,3.7c-0.4,0.3-0.9,0.4-1.5,0.4c0-0.3-0.1-0.6-0.3-0.8c-0.2-0.2-0.8-0.3-1.3-0.4V5.5c0.6,0,1.6,0.1,1.9,0.1
				c0.3,0,0.4,0,0.6-0.1c0.3-0.3,0.6-1.2,0.8-2.8h-2.9c-0.7,2-2.2,3.8-5.3,4.8l-0.1-0.2c2.5-1.1,3.7-2.7,4.3-4.6h-1.2
				c-0.8,0-1.5,0.1-2.2,0.3l-0.5-0.9c0.8,0.1,1.6,0.1,2.4,0.1h1.6c0.2-0.7,0.3-1.6,0.2-2.2c1.9,0.3,1.9,0.5,1.6,0.7l-0.3,0.2
				c-0.1,0.5-0.2,0.9-0.3,1.4h2.6L365.5,1.9z"/>
			<path d="M385.2,9.3c-0.6,5.8-7.7,5.9-8.1,6c-0.6,0.1-0.9,0.1-0.9-0.1c0-0.1,0.5-0.2,0.7-0.2c2-0.3,6.7-1.7,7-5.9
				c0.4-4.2-2.6-5.9-5.2-6.1c-0.2,0-0.5,0-0.7,0c0.3,0.6,1.1,2.5-0.3,5.6c-1.5,3.5-3.6,5.1-4.3,5c-0.8-0.1-2.1-1.5-2.2-3.8
				c-0.3-4.6,3.5-6.9,6.1-7.4C380.3,2,385.8,3.5,385.2,9.3z M377.8,3c-2.2,0.3-4.4,1.7-5.3,4.3c-1,3,0.5,4.6,0.9,4.8
				c0.3,0.2,0.8-0.2,0.8-0.2c2.1-1.5,3.3-4.5,3.5-5.4C377.9,5.8,378.1,4,377.8,3z"/>
			<path d="M402.6,1.9c0.2-0.2,0.3-0.5,0.5-0.5c0.2,0,1.3,1.2,1.3,1.5c-0.1,0.1-0.3,0.2-0.7,0.2c-0.5,0.6-1.4,1.3-2.1,1.7
				c0.2,0.2,0.4,0.3,0.6,0.5c0,0.2-0.2,0.3-0.5,0.3h-4.1c0.4,1.4,0.9,2.7,1.6,3.9c0.2-0.2,0.4-0.3,0.6-0.5c0.9-0.8,1.9-1.9,2.3-2.8
				c1.6,1.1,1.6,1.3,1.3,1.3l-0.3,0c-0.9,0.7-2.3,1.7-3.7,2.3c1.3,2,3,3.6,5.1,4.6l-0.1,0.1c-0.5,0-0.9,0.4-1.2,1
				c-3.1-2-5.2-5.2-6-9.9h-0.3c-0.6,0.5-1.2,1-2,1.4c3.4,2.8,3.5,7.6,2.2,9.1c-0.3,0.4-0.9,0.7-1.9,0.6c0-0.4-0.2-0.6-0.4-0.8
				c-0.2-0.1-0.9-0.3-1.5-0.4l0-0.3c0.7,0.1,2,0.1,2.4,0.1c0.2,0,0.4,0,0.5-0.2c0.5-0.6,0.7-1.9,0.4-3.4c-2.1,1.7-5.2,3.2-8.1,4
				l-0.1-0.3c3-1,6.2-3,7.9-5.2c-0.1-0.3-0.3-0.7-0.4-1.1c-1.7,1.3-4.4,2.6-6.8,3.3l-0.1-0.3c2.2-0.9,4.8-2.5,6.3-4.1
				c-0.2-0.3-0.4-0.6-0.7-0.9c-1.5,0.9-3.4,1.6-5.2,2.2l-0.1-0.3c2.2-0.9,4.4-2.2,5.9-3.5h-1.4c-0.9,0-1.7,0.1-2.5,0.3L390.8,5
				c0.8,0.1,1.6,0.1,2.4,0.1h6.7l0.8-1c0,0,0.3,0.3,0.7,0.6c0.3-0.5,0.6-1.2,0.9-1.7h-11.3c0,1.2-0.5,2-1,2.4
				c-0.4,0.3-1.1,0.4-1.3,0c-0.2-0.4,0.1-0.8,0.4-1c0.7-0.4,1.4-1.6,1.4-2.9h0.3c0.1,0.4,0.2,0.8,0.2,1.1h4.9c0-0.7,0-1.7-0.1-2.3
				c1.9,0.6,1.9,0.7,1.6,0.9L397,1.2v1.2h5.3L402.6,1.9z"/>
			<path d="M412,14c0-0.1,0.2-0.2,0.3-0.2c3.6-0.2,6.9-1.9,7.6-4.5c0.7-2.4-0.5-4-2-4.5c-2.6-0.9-6.2,1.9-6.7,2.2
				c-0.4,0.3-1.2,1-2,1.2c-0.7,0.1-1.7-0.7-1.9-0.9C407,6.9,407,6.7,407,6.7c0.1-0.2,0.3-0.1,0.5-0.1c0.2,0.1,0.7,0.2,1.2,0.1
				c1.2-0.2,6.1-3.6,9.3-2.5c3.2,1.1,3.4,3.4,3.2,5c-0.1,0.8-0.8,4.6-9,4.9C412.2,14.1,412,14.1,412,14z M419.5,2.9
				c0.3,0,2,0,2.3,1.1c0.1,0.3,0.1,0.5-0.1,0.7s-0.6,0.1-0.9-0.2c-0.3-0.4-0.9-1-1.4-1.1c-0.2-0.1-0.5-0.1-0.5-0.3
				C418.8,2.9,419.2,2.9,419.5,2.9z M420.8,1.5c0.3,0,2.1-0.1,2.4,1c0.1,0.3,0,0.4-0.1,0.5c-0.2,0.1-0.6,0.2-0.9-0.2
				c-0.4-0.3-1-0.9-1.5-1c-0.2,0-0.5-0.1-0.5-0.2C420.1,1.6,420.5,1.5,420.8,1.5z"/>
			<path d="M433,14.6c-1.3-3.2-1.9-3.6-2.4-4.3c-0.5-0.8-0.9-1.2-0.9-1.7s0.3-1.1,0.7-1.9c1.3-2,2.5-3.7,2.7-4
				c0.3-0.7,0.2-1.1,0-1.3c-0.2-0.1-0.6-0.4-0.5-0.5c0.1-0.1,1,0.1,1.7,0.5c0.6,0.4,0.4,1,0.3,1.3c-0.3,0.6-1,1.2-2,2.4
				c-0.9,1-1.7,2.2-2.1,2.8c-0.3,0.5-0.3,0.8,0.1,1.2c0.8,0.8,3.8,3.9,4.1,6.2c0.1,0.7-0.1,1-0.5,1C433.5,16.3,433.3,15.2,433,14.6z
				"/>
			<path d="M449.8,1.8c0.2,1.2-0.5,3.1-0.8,3.9c0,0.1-0.1,0.2-0.1,0.4c0.5-0.9,1.4-1.8,2.5-1.7c1.4,0.1,3.2,1.8,2.5,6.2
				s-4.6,5.4-5.1,5.5c-0.1,0-0.2,0-0.2-0.1c0-0.1,0-0.1,0.1-0.2c2.7-1.1,3.7-3.2,4.1-5.7c0.4-2.6-0.5-5.1-1.7-5.1
				c-1.2,0-1.9,1.2-2.1,2.3c-0.3,1.6,0,1.9,0.3,2.4c0.1,0.3,0.5,0.9,0.3,1.2c-0.2,0.2-0.4,0.2-0.7,0.1c-0.6-0.3-0.9-1-1-1.8
				c-0.3-2,1.3-5.5,1.4-6.7c0.1-0.5,0.1-0.8-0.2-1.1c-0.2-0.2-0.5-0.4-0.4-0.5c0.1-0.1,0.5-0.1,0.8,0.1
				C449.6,1.2,449.7,1.5,449.8,1.8z"/>
		</g>
	</g>
	<line class="st0" x1="335" y1="36.1" x2="457.7" y2="36.1"/>
</g>
</svg>
