<?xml version="1.0" encoding="utf-8"?>
<!-- Generator: Adobe Illustrator 26.5.0, SVG Export Plug-In . SVG Version: 6.00 Build 0)  -->
<svg version="1.1" id="レイヤー_1" xmlns="http://www.w3.org/2000/svg" xmlns:xlink="http://www.w3.org/1999/xlink" x="0px"
	 y="0px" viewBox="0 0 338 125" style="enable-background:new 0 0 338 125;" xml:space="preserve">
<style type="text/css">
	.st0{fill:#7CAFB9;}
	.st1{fill:#FFFFFF;}
	.st2{fill:none;stroke:#000000;stroke-linecap:round;stroke-linejoin:round;stroke-miterlimit:10;}
</style>
<g>
	<g>
		<g>
			<polygon class="st0" points="317.5,54.4 307.7,54.4 327.9,89.3 307.7,124.2 317.5,124.2 337.8,89.3 			"/>
			<polygon class="st0" points="298.5,54.4 287.6,54.4 307.8,89.3 287.6,124.2 298.5,124.2 318.7,89.3 			"/>
			<polygon class="st0" points="278.4,54.4 0,54.4 0,89.3 0,124.2 278.4,124.2 298.6,89.3 			"/>
		</g>
		<g>
			<path class="st1" d="M50.1,78.6c-0.1,0.2-0.3,0.3-0.7,0.3c-0.6,1.5-1.2,3-1.9,4.4l0.8,0.3c0,0.2-0.2,0.4-0.6,0.4v16.2h-2.8V87.9
				c-0.6,0.9-1.2,1.8-1.9,2.6c-0.3-0.7-0.9-2.2-1.3-2.9c2-2.3,4-6.2,5.2-10L50.1,78.6z M53.4,95.4c0,1.5,0.2,1.7,1.9,1.7h5.3
				c1.4,0,1.7-0.6,2-3.1c0.6,0.4,1.8,0.9,2.6,1.1c-0.4,3.4-1.3,4.6-4.3,4.6h-5.7c-3.5,0-4.5-0.9-4.5-4.4v-6.5l-1.8,0.6l-0.9-2.5
				l2.7-0.9v-6.6l3.4,0.2c0,0.2-0.2,0.4-0.6,0.4v5l2.5-0.9v-6.3l3.3,0.2c0,0.2-0.2,0.4-0.6,0.5v4.8l2.9-1l0.5-0.4l2.3,0.8
				c0,0.1-0.2,0.3-0.4,0.4c0,4.2,0,7.2-0.1,8.2c-0.1,1.8-0.9,2.7-4.2,2.6c-0.1-0.8-0.3-2-0.6-2.7c0.6,0,1.3,0,1.6,0
				c0.4,0,0.5-0.1,0.6-0.5c0-0.4,0.1-2.1,0.1-5.6l-2.6,0.9v8.3h-2.7V87l-2.5,0.9V95.4z"/>
			<path class="st1" d="M89.5,89.2c0,5.3-2.9,9-8.5,9.9c-0.6-0.6-1.5-2.2-1.8-3.1c0.8,0,1.6-0.2,2.3-0.3c2.5-0.6,4.8-2.5,4.8-6.4
				c0-3.6-2.3-6-5.8-6.3c-0.1,1.8-0.4,4.5-0.9,6.6c-1.1,4.8-2.8,8.2-6,8.2c-2.5,0-5-3.3-5-7.4c0-5.9,4.7-10.2,11-10.2
				C85.2,80,89.5,83.6,89.5,89.2z M76.5,88.8c0.4-1.7,0.7-3.9,0.8-5.7c-3.8,0.9-5.7,4.2-5.7,6.9c0,2.5,1.1,3.9,2,3.9
				C74.8,93.9,75.8,92,76.5,88.8z"/>
			<path class="st1" d="M107.1,96.3c0,1,0.2,1.1,1.4,1.1h3.7c0.9,0,1.1-0.3,1.2-2.1c0.6,0.4,1.6,0.8,2.3,0.9
				c-0.3,2.8-1.1,3.6-3.4,3.6h-4.2c-2.9,0-3.7-0.8-3.7-3.5v-3.8l-1,0.5l-1-2.4l2-0.9v-2.9l-0.4,0.4c-0.4-0.5-1.4-1.5-2-1.9
				c0.4-0.4,0.8-0.9,1.2-1.5h-5.1l-0.1,2.6h3l1.4,0c0,0.2,0,0.6,0,0.9c-0.1,7.9-0.2,10.8-0.9,11.7c-0.7,1.1-1.7,1.1-4.1,1.1
				c0-0.8-0.3-1.9-0.7-2.6c0.7,0.1,1.4,0.1,1.8,0.1c0.3,0,0.5-0.1,0.7-0.4c0.3-0.5,0.5-2.5,0.6-8.2h-1.9c-0.3,4.2-1.1,8.2-3.1,11.1
				c-0.5-0.7-1.3-1.5-2-2c2.4-3.3,2.6-8.7,2.7-14.3h-2.3v-2.7H97v-3.6l3.4,0.2c0,0.2-0.2,0.4-0.6,0.4v3h3.8v2.4c1-1.7,1.7-3.9,2.2-6
				l3.3,0.8c-0.1,0.2-0.3,0.3-0.6,0.3c-0.2,0.7-0.4,1.5-0.6,2.2h8v2.6h-9c-0.4,0.8-0.8,1.7-1.3,2.4l2.4,0.1c0,0.2-0.2,0.4-0.6,0.4
				v2.2l1.3-0.6v-4.1l3.1,0.2c0,0.2-0.2,0.4-0.6,0.4v2.4l1.2-0.6h0l1-0.7c0.6,0.2,1.2,0.4,2,0.7c0,0.1-0.1,0.3-0.3,0.3
				c0,3.4,0,5.8-0.1,6.6c-0.1,1.9-1.7,1.9-3,1.9c0-0.6-0.2-1.6-0.5-2.1c0.3,0,0.6,0,0.8,0c0.2,0,0.3-0.1,0.4-0.4c0-0.2,0-1.5,0-3.7
				l-1.4,0.6v6.3h-2.5v-5.2l-1.3,0.6V96.3z"/>
			<path class="st1" d="M131.4,95.5h9.3v2.9H119v-2.9h9.2V82.9h-8V80h19.3v2.9h-8.2V95.5z"/>
			<path class="st1" d="M161.7,94.4h-2.6v-10c0,0.1-0.1,0.1-0.1,0.2c-0.9,7.4-3.3,12.9-7.1,15.6c-0.4-0.7-1.2-1.8-1.8-2.3
				c1.8-1.2,3.2-3,4.3-5.4c-0.5-0.6-1.4-1.4-2.1-2c-0.5,0.8-0.9,1.5-1.5,2.2c-0.3-0.6-1.1-1.4-1.6-1.9v9.4h-2.7V88.3
				c-0.5,0.8-1.1,1.6-1.7,2.3c-0.2-0.7-0.8-2.3-1.2-3c1.8-2.3,3.6-6.2,4.8-10l3,1h8.4v1.8l2.6,0.2c0,0.2-0.2,0.4-0.6,0.4V94.4z
				 M149.7,83.6c0,0.2-0.2,0.4-0.6,0.4v6.4c1.8-2.4,2.7-6.1,3.2-9.4h-1.5v-2.2h-0.1c-0.5,1.5-1.1,3-1.7,4.5L149.7,83.6z M152.7,89.5
				l0.7-1.2c0.6,0.4,1.4,1,1.9,1.5c0.3-1.1,0.6-2.4,0.8-3.7h-2.1C153.6,87.3,153.2,88.4,152.7,89.5L152.7,89.5z M155.1,81.1
				c-0.1,0.8-0.3,1.7-0.5,2.6h2.5c0.2,0,0.3-0.1,0.5-0.1c0.5,0.2,1,0.3,1.5,0.6v-3.1H155.1z M163.2,77.9l3.3,0.1
				c0,0.2-0.2,0.4-0.6,0.4v18.3c0,2.7-1,3.3-5.3,3.3c-0.1-0.8-0.5-2-0.9-2.8c0.8,0,1.6,0.1,2.2,0.1c1.2,0,1.3,0,1.3-0.6V77.9z"/>
			<path class="st1" d="M187.4,95.6c0.1,1.1,0,2.4-0.3,3.3c-0.9,0.3-3.3,0.6-5.5,0.6c-3.4,0-6.8-1.1-6.8-4.4c0-3,2.6-4.5,5.4-5.9
				c-0.2-0.7-0.9-1.2-1.8-1.2c-1.8,0-3.3,1.4-5.2,3.9c-0.8-0.6-1.7-1.5-2.2-2.3c2.5-2.3,4.2-4.4,5.2-6.1c-1.2,0.1-2.3,0.1-3.3,0.1
				c-0.3-0.7-0.5-2-0.5-2.9c0.7,0.1,1.5,0.2,2.2,0.2c0.8,0,1.8,0,2.9-0.1c0.4-1,0.7-2.1,0.8-3.1c0.9,0.1,2.4,0.5,3,0.8
				c-0.1,0.5-0.4,1.2-0.7,2c1.5-0.2,3-0.5,4.1-0.8c0.2,0.7,0.4,1.9,0.3,2.7c-1.4,0.4-3.5,0.7-5.7,0.9c-0.6,1-1.3,2.1-1.9,3
				c0.8-0.3,1.6-0.5,2.3-0.5c1.3,0,2.6,0.7,3.1,2.2c1.8-0.9,3.3-1.7,4.5-2.4c0.6-0.3,1.2-0.7,1.8-1.2c0.5,0.6,1,2,1.1,2.9
				c-0.7,0.6-4.6,2.3-7.2,3.5c0,1.2,0,2.8,0,3.8c-0.8,0.1-2,0.1-2.9,0c0.1-0.5,0.1-1.5,0.1-2.5c-1.7,0.9-2.5,1.7-2.5,2.8
				c0,1.3,1.3,1.9,3.9,1.9C183.8,96.8,186.1,96.2,187.4,95.6z"/>
			<path class="st1" d="M205,92.8c0,0.2-0.2,0.4-0.6,0.4c-0.6,3.3-1.6,5.7-7.9,7c-0.3-0.7-1-1.9-1.6-2.6c5.5-0.8,6.2-2.4,6.5-5.2
				L205,92.8z M210.2,96.3c0,0.8,0.1,0.9,1.1,0.9h2.5c0.8,0,1-0.4,1.1-3.3c0.6,0.5,1.9,1,2.6,1.2c-0.3,3.8-1.1,4.8-3.5,4.8h-3.2
				c-2.9,0-3.6-0.9-3.6-3.6v-4.5h-9V78.2h15.8v13.6h-3.9V96.3z M201.1,80.6v1.5h10.1v-1.5H201.1z M201.1,84.3v1.5h10.1v-1.5H201.1z
				 M201.1,88v1.5h10.1V88H201.1z"/>
			<path class="st1" d="M240.3,92.7c0,3.6-2.9,6.8-8.3,6.8c-3.4,0-5.3-1.8-5.3-3.9c0-1.8,1.5-3.4,3.7-3.4c2.8,0,4.5,1.7,5,3.7
				c1.2-0.7,1.9-1.9,1.9-3.3c0-2.1-1.8-3.5-4.6-3.5c-4.2,0-6.5,3-8.2,5.4c-0.7-0.6-1.7-1.6-2.2-2.4c1.6-1.8,4.4-4.7,6.1-6.3
				c1.5-1.5,3-2.9,3.7-3.7c-1.3,0.2-3.6,0.5-5.8,0.7c-0.3-0.7-0.6-2.1-0.6-3c0.7,0,1.6,0.1,2.3,0c2-0.1,6.9-0.5,8-0.8
				c0.5,0.5,1.1,1.5,1.3,2.2c-1.3,1.1-3,2.5-4.3,3.8c-1,0.9-1.8,1.7-2.3,2.3c0.9-0.5,2.2-0.7,3-0.7
				C237.5,86.7,240.3,88.9,240.3,92.7z M232.7,96.8c-0.2-1.2-1-2.1-2.2-2.1c-0.7,0-1.1,0.4-1.1,0.9c0,0.8,0.8,1.3,2.2,1.3
				C232,96.8,232.4,96.8,232.7,96.8z"/>
		</g>
	</g>
	<g>
		<path d="M84.4,19.6c-0.1,0-0.1,0-0.2,0c-0.7,0-1.3,0.2-1.9,0.3c-0.9,0.2-1.8,0.5-2.7,0.8c0.1,1,0.2,2,0.4,3c0.3,1.1,1.4,4.6,3,4.2
			c0.9-0.2,1.5-1.9,1.6-2.7c0.1-0.3,0.3-0.5,0.6-0.6c0.4-0.1,0.8,0.1,0.9,0.6c0,0.1,0,0.2,0,0.3c-0.2,1.4-1.3,3.5-2.8,3.8
			c-2.8,0.7-4.3-3.2-4.8-5.3c-0.2-0.9-0.3-1.9-0.4-2.9c-0.5,0.2-1.2,0.4-1.7,0.7c0,0-0.1,0-0.1,0.1c-0.4,0.1-0.8-0.1-0.9-0.6
			c-0.1-0.4,0.1-0.7,0.4-0.9c0.7-0.4,1.5-0.6,2.2-0.9c-0.1-1.2-0.1-2.5-0.1-3.7c-0.4,0.1-1.1,0.5-1.4,0.5c-0.4,0.1-0.8-0.1-0.9-0.6
			c-0.1-0.3,0-0.7,0.4-0.8c0.6-0.3,1.3-0.6,2-0.7c0-0.9,0.1-1.8,0.2-2.7c0.1-0.3,0.2-0.6,0.6-0.7c0.4-0.1,0.8,0.1,0.9,0.5
			c0,0.2-0.1,2-0.1,2.3l0.5-0.1c0.5-0.1,1.6-0.4,2.1-0.3c0.3,0,0.6,0.2,0.7,0.6c0.1,0.4-0.1,0.8-0.6,0.9c-0.1,0-0.1,0-0.2,0
			c-0.5,0-1,0.1-1.4,0.2c-0.4,0.1-0.7,0.2-1.1,0.3c0,1.2,0,2.5,0,3.7c0.8-0.3,1.6-0.5,2.5-0.7c0.6-0.1,1.8-0.4,2.4-0.4
			c0.3,0,0.6,0.2,0.7,0.6C85.1,19,84.8,19.5,84.4,19.6z"/>
		<path d="M103.4,23.7c-0.1,0.1-0.2,0.1-0.3,0.1c-0.4,0.1-0.8-0.2-0.9-0.6c-0.1-0.3,0.1-0.6,0.3-0.8c0.4-0.3,0.8-0.6,1.3-0.9
			c1.2-0.9,3-2.7,2.7-4.4c-0.3-1.7-2.7-1.5-4-1.3c-1.2,0.2-2.9,0.8-4,1.5c-0.1,0.1-0.3,0.2-0.4,0.3C98,17.8,97.9,18,97.5,18
			c-0.4,0.1-0.8-0.2-0.9-0.6c-0.3-1.6,4.5-3,5.7-3.2c2.2-0.4,5.3-0.2,5.7,2.6C108.5,19.6,105.5,22.3,103.4,23.7z"/>
		<path d="M130.8,19.8c-0.9,1.1-3.1,2.2-4.5,2.4c-2.3,0.2-5.1-0.2-5.4-3c-0.2-2.2,1.3-4.2,2.8-5.6c-1-1.6-1.6-4.1-1.8-6
			c-0.1-1.1-0.2-2.7,0-3.7c0.1-0.3,0.3-0.6,0.7-0.6c0.4,0,0.8,0.2,0.8,0.7c0,0.1,0,0.1,0,0.2c-0.2,1.1-0.1,2.3,0,3.4
			c0.2,1.7,0.6,3.7,1.5,5.2c0.9-0.6,2.5-1.5,3.5-1.6c0.4,0,0.8,0.2,0.9,0.6c0,0.5-0.2,0.7-0.6,0.9c-0.4,0.1-0.7,0.2-1.1,0.4
			c-2.1,0.9-5.4,3.6-5.1,6.2c0.2,1.8,2.4,1.8,3.7,1.6c1.3-0.1,2.6-1,3.5-1.9c0.1-0.1,0.3-0.2,0.5-0.3c0.4,0,0.8,0.3,0.8,0.7
			C131,19.5,131,19.6,130.8,19.8z"/>
		<path d="M149.6,11.9c-0.5,0-1.1,0-1.6,0c-0.7,0-1.5,0.1-2.2,0.1c0,0.5-0.1,1-0.1,1.5c1.1,1.7,3,3.5,4.5,4.8
			c0.2,0.1,0.3,0.3,0.3,0.5c0,0.4-0.3,0.7-0.7,0.8c-0.2,0-0.3-0.1-0.5-0.2c-0.5-0.3-0.9-0.8-1.3-1.2c-1-0.9-1.9-1.9-2.7-3
			c-0.8,2.5-2.3,5.1-4.5,6.5c-0.1,0.1-0.2,0.1-0.4,0.1c-0.4,0-0.7-0.3-0.8-0.7c0-0.3,0.1-0.5,0.3-0.6c0.4-0.3,0.8-0.6,1.2-1
			c1.8-1.9,3.1-4.9,3.2-7.5c-1.1,0.1-2.1,0.2-3.2,0.3c-0.5,0.1-0.9,0.2-1.4,0.2l-0.1,0c-0.4,0-0.7-0.3-0.8-0.7
			c0-0.4,0.2-0.6,0.6-0.7c0.5-0.1,1-0.1,1.5-0.2c1.1-0.2,2.2-0.3,3.3-0.4c-0.1-1.4-0.2-2.8-0.3-4.2c-1.2,0.1-2.3,0.3-3.5,0.5
			c0,0-0.1,0-0.1,0c-0.4,0-0.7-0.3-0.8-0.7c0-1,1.3-4.9,1.6-5.8c0.1-0.3,0.4-0.5,0.7-0.5c0.4,0,0.7,0.3,0.8,0.7
			c0,0.3-1.1,4.1-1.3,4.7c2.4-0.4,5-0.6,7.4-0.7c0.4,0,0.7,0.3,0.8,0.7c0,0.4-0.3,0.7-0.7,0.8c-1.1,0.1-2.2,0.2-3.4,0.3
			c0.1,1.4,0.2,2.9,0.3,4.3c0.7-0.1,1.5-0.1,2.2-0.1c0.5,0,1.1-0.1,1.6,0c0.4,0,0.7,0.3,0.7,0.8C150.4,11.6,150,11.9,149.6,11.9z
			 M160.5,15.3c0.2,0.1,0.4,0.4,0.4,0.6c0,0.4-0.3,0.7-0.7,0.7c-0.7,0.1-1.4,0.1-2,0.2c-1.6,0.1-3.3,0.2-4.9,0.4l0,0.2
			c0,0.4-0.3,0.7-0.7,0.8c-0.4,0-0.7-0.2-0.8-0.6c-0.1-0.4-0.1-0.8-0.1-1.2c-0.1-0.8-0.1-1.7-0.2-2.5c-0.2-2.3-0.3-4.6-0.4-6.8
			c0-0.4,0.3-0.7,0.7-0.8c0.8,0,0.8,0.8,0.8,1.4c1.5-0.2,3-0.4,4.6-0.5c0.9,0,1.9-0.1,2.8,0c0.6,0.1,0.6,0.5,0.7,1
			C160.8,10.6,160.7,13,160.5,15.3z M157.4,8.7c-1.6,0.1-3.2,0.2-4.7,0.5c0.1,2.2,0.2,4.4,0.5,6.7c1.6-0.2,3.3-0.3,4.9-0.4
			c0.3,0,0.6-0.1,1-0.1c0.2-2.2,0.2-4.5,0.2-6.7C158.6,8.7,158,8.7,157.4,8.7z"/>
		<path d="M175.2,3.9c-1.1,1.7-1.8,4.5-1.9,6.5c0,0.3,0,0.5,0,0.8c0.3-0.2,0.6-0.6,1-0.6c0.4,0,0.8,0.3,0.8,0.8
			c0,0.2-0.1,0.4-0.3,0.6c-0.5,0.4-1.4,1.2-2,1.2c-1,0-1.1-2-1.1-2.8c0-2,0.9-5.6,2.1-7.3c0.2-0.2,0.4-0.3,0.6-0.3
			c0.4,0,0.8,0.3,0.7,0.8C175.4,3.6,175.3,3.7,175.2,3.9z M181.8,5.4c-0.3,3.8-1.8,8.7-3.3,12.2c-0.2,0.5-0.4,1.1-0.7,1.5
			c-0.2,0.2-0.4,0.4-0.7,0.4c-0.4,0-0.8-0.3-0.7-0.7c0-0.1,0.1-0.3,0.1-0.4c1.5-3,2.6-6.9,3.3-10.1c0.1-0.7,0.3-1.3,0.4-2
			c0.1-0.4,0.1-0.7,0.2-1c0.1-0.4,0.4-0.7,0.8-0.6c0.4,0,0.8,0.4,0.7,0.8L181.8,5.4z"/>
		<path d="M204.7,6.2c-1.3,0.3-2.8,0.3-4.1,0.2c-1.7,2.6-5,9-5.3,12c0,0.4,0.1,0.8,0.1,1.1c0,0.4-0.4,0.7-0.8,0.7
			c-0.8-0.1-0.8-1.3-0.7-1.9c0.3-3.3,3.3-9.1,5.1-12c-0.8-0.1-1.6-0.2-2.3-0.4c-0.4-0.1-0.6-0.4-0.6-0.8c0-0.4,0.4-0.8,0.8-0.7
			l0.1,0c1,0.2,2,0.3,2.9,0.4c0.3-0.4,0.5-0.8,0.8-1.1c0.2-0.2,0.4-0.2,0.6-0.2c0.4,0,0.7,0.4,0.7,0.8c0,0.3-0.1,0.5-0.3,0.6
			c0.9,0,1.8-0.1,2.8-0.2c0.1,0,0.1,0,0.2,0c0.4,0,0.7,0.4,0.7,0.8C205.3,5.8,205,6.1,204.7,6.2z M210.3,20.6
			c-1.2-0.1-4-0.9-4.9-1.6c-0.2-0.2-0.3-0.4-0.3-0.6c0-0.4,0.4-0.8,0.8-0.7c0.2,0,0.3,0.1,0.4,0.2c1.1,0.7,2.9,1.2,4.2,1.4
			c0.5,0.1,0.7,0.4,0.7,0.8C211.1,20.3,210.7,20.6,210.3,20.6z M211.2,11.9c-0.1,0-0.2,0-0.3-0.1c-0.3-0.1-0.6-0.2-0.9-0.2
			c-1.1-0.1-2.4,0.2-3.5,0.5c-0.1,0-0.2,0.1-0.3,0c-0.4,0-0.8-0.4-0.7-0.8c0-0.3,0.2-0.5,0.5-0.6c1.1-0.5,3-0.7,4.1-0.6
			c0.7,0.1,2,0.2,1.9,1.1C211.9,11.6,211.6,11.9,211.2,11.9z"/>
		<path d="M226.3,17.8c-0.7,0.4-2.5,0.8-3.3,0.7c-1.1-0.2-1.8-2.2-2.1-3c-0.3-0.9-1.2-3.8-1.1-4.7c0.1-0.4,0.5-0.7,0.9-0.6
			c0.4,0.1,0.6,0.3,0.7,0.7c0.1,0.5,0.1,0.9,0.2,1.4c0.2,1,1.1,4,1.8,4.8c0.7,0.1,1.6-0.3,2.3-0.5c0.2-0.1,0.3-0.1,0.5-0.1
			c0.4,0.1,0.7,0.5,0.6,0.9C226.6,17.5,226.5,17.7,226.3,17.8z M238.3,17.5c-0.4-0.1-0.7-0.5-0.6-0.9c0-0.1,0.1-0.2,0.1-0.3
			c0.3-0.4,0.4-0.9,0.5-1.5c0.1-0.6,0.1-1.5-0.2-1.9c-0.1-0.2-0.2-0.4-0.1-0.6c0.1-0.4,0.5-0.7,0.9-0.6c1.1,0.2,1.1,2.6,1,3.4
			C239.7,15.7,239.2,17.6,238.3,17.5z"/>
		<path d="M253.7,30.1c-1.1-0.3-0.4-2.5-0.1-3.9c0.1-0.4,0.5-0.7,0.9-0.6c1.3,0.3,0,2.4,0.1,3.6c0,0.1,0,0.2,0,0.3
			C254.5,29.9,254.1,30.2,253.7,30.1z M258.7,11.9c-1,3.4-2.1,7-2.9,10.5c-0.1,0.4-0.5,0.7-0.9,0.6c-0.7-0.2-0.6-0.8-0.5-1.4
			c0.5-2.3,1.2-4.5,1.8-6.7c0.3-1,0.7-2.5,1.1-3.4c0.1-0.4,0.5-0.6,0.9-0.5C258.6,11,258.8,11.4,258.7,11.9L258.7,11.9z"/>
	</g>
	<line class="st2" x1="35.9" y1="13.7" x2="49.8" y2="33.6"/>
	<line class="st2" x1="287.6" y1="33.6" x2="299.9" y2="13.7"/>
</g>
</svg>
